<svg width="17" height="17" viewBox="0 0 17 17" fill="none" xmlns="http://www.w3.org/2000/svg">
<path d="M2.71153 6.32202C2.5789 6.32202 2.45169 6.37471 2.3579 6.4685C2.26412 6.56229 2.21143 6.68949 2.21143 6.82213V13.5736C2.21143 14.5188 3.0166 15.324 3.96181 15.324H12.4637C13.4089 15.324 14.214 14.5579 14.214 13.6127V6.82213C14.214 6.68949 14.1613 6.56229 14.0676 6.4685C13.9738 6.37471 13.8466 6.32202 13.7139 6.32202H2.71153Z" stroke="#1A162E" stroke-width="1.00189" stroke-linecap="round" stroke-linejoin="round"/>
<path d="M5.2124 6.32291V5.32255C5.2124 4.52662 5.52859 3.76328 6.0914 3.20047C6.65421 2.63766 7.41755 2.32147 8.21348 2.32147V2.32147C9.00942 2.32147 9.77276 2.63766 10.3356 3.20047C10.8984 3.76328 11.2146 4.52662 11.2146 5.32255V6.32291" stroke="#1A162E" stroke-width="1.00189" stroke-linecap="round" stroke-linejoin="round"/>
<path d="M5.2124 7.82233V8.32251C5.2124 9.11844 5.52859 9.88178 6.0914 10.4446C6.65421 11.0074 7.41755 11.3236 8.21348 11.3236C9.00942 11.3236 9.77276 11.0074 10.3356 10.4446C10.8984 9.88178 11.2146 9.11844 11.2146 8.32251V7.82233" stroke="#1A162E" stroke-width="1.00189" stroke-linecap="round" stroke-linejoin="round"/>
</svg>
