<svg width="17" height="17" viewBox="0 0 17 17" fill="none" xmlns="http://www.w3.org/2000/svg">
<g clip-path="url(#clip0_5_1446)">
<path d="M1.50806 8.00972H14.5109" stroke="#1A162E" stroke-width="1.00189" stroke-linecap="round" stroke-linejoin="round"/>
<path d="M13.01 4.50827C13.01 4.23207 12.7861 4.00816 12.5099 4.00816C12.2337 4.00816 12.0098 4.23207 12.0098 4.50827V11.5098C12.0098 11.786 12.2337 12.0099 12.5099 12.0099C12.7861 12.0099 13.01 11.786 13.01 11.5098V4.50827Z" stroke="#1A162E" stroke-width="1.00189" stroke-linecap="round" stroke-linejoin="round"/>
<path d="M4.00852 4.50852C4.00852 4.23231 3.78461 4.00841 3.50841 4.00841C3.23221 4.00841 3.0083 4.23231 3.0083 4.50852V11.51C3.0083 11.7862 3.23221 12.0101 3.50841 12.0101C3.78461 12.0101 4.00852 11.7862 4.00852 11.51V4.50852Z" stroke="#1A162E" stroke-width="1.00189" stroke-linecap="round" stroke-linejoin="round"/>
<path d="M1.50775 6.25921C1.50775 6.12109 1.39578 6.00912 1.25766 6.00912C1.11954 6.00912 1.00757 6.12109 1.00757 6.25921V9.76048C1.00757 9.8986 1.11954 10.0106 1.25766 10.0106C1.39578 10.0106 1.50775 9.8986 1.50775 9.76048V6.25921Z" stroke="#1A162E" stroke-width="1.00189" stroke-linecap="round" stroke-linejoin="round"/>
<path d="M15.0107 6.25921C15.0107 6.12109 14.8987 6.00912 14.7606 6.00912C14.6225 6.00912 14.5105 6.12109 14.5105 6.25921V9.76048C14.5105 9.8986 14.6225 10.0106 14.7606 10.0106C14.8987 10.0106 15.0107 9.8986 15.0107 9.76048V6.25921Z" stroke="#1A162E" stroke-width="1.00189" stroke-linecap="round" stroke-linejoin="round"/>
</g>
<defs>
<clipPath id="clip0_5_1446">
<rect width="16.0035" height="16.0035" fill="white" transform="translate(0.00756836 0.00757599)"/>
</clipPath>
</defs>
</svg>
