<svg width="17" height="17" viewBox="0 0 17 17" fill="none" xmlns="http://www.w3.org/2000/svg">
<path d="M12.0278 7.76868H3.02588V4.51797C3.02687 4.18668 3.15891 3.86925 3.39317 3.63499C3.62743 3.40073 3.94486 3.26869 4.27615 3.2677H11.7778C12.1091 3.26869 12.4265 3.40073 12.6608 3.63499C12.895 3.86925 13.0271 4.18668 13.0281 4.51797V7.76868H12.0278Z" stroke="#1A162E" stroke-width="1.00189" stroke-linecap="round" stroke-linejoin="round"/>
<path d="M1.52563 13.2696V9.76887C1.5272 9.2388 1.73846 8.73089 2.11328 8.35608C2.48809 7.98126 2.996 7.77 3.52607 7.76843H12.528C13.0581 7.77 13.566 7.98126 13.9408 8.35608C14.3156 8.73089 14.5269 9.2388 14.5285 9.76887V13.2696" stroke="#1A162E" stroke-width="1.00189" stroke-linecap="round" stroke-linejoin="round"/>
<path d="M1.52563 13.2697V13.0197C1.52621 12.8209 1.60543 12.6304 1.74599 12.4899C1.88655 12.3493 2.07702 12.2701 2.2758 12.2695H13.7783C13.9771 12.2701 14.1676 12.3493 14.3081 12.4899C14.4487 12.6304 14.5279 12.8209 14.5285 13.0197V13.2697" stroke="#1A162E" stroke-width="1.00189" stroke-linecap="round" stroke-linejoin="round"/>
<path d="M3.52612 7.76848V7.2683C3.52687 7.00322 3.6325 6.74921 3.81994 6.56176C4.00739 6.37432 4.2614 6.26869 4.52648 6.26794H7.02738C7.29247 6.26869 7.54648 6.37432 7.73393 6.56176C7.92137 6.74921 8.027 7.00322 8.02774 7.2683V7.76848" stroke="#1A162E" stroke-width="1.00189" stroke-linecap="round" stroke-linejoin="round"/>
<path d="M8.02686 7.76848V7.2683C8.0276 7.00322 8.13323 6.74921 8.32067 6.56176C8.50812 6.37432 8.76213 6.26869 9.02722 6.26794H11.5281C11.7932 6.26869 12.0472 6.37432 12.2347 6.56176C12.4221 6.74921 12.5277 7.00322 12.5285 7.2683V7.76848" stroke="#1A162E" stroke-width="1.00189" stroke-linecap="round" stroke-linejoin="round"/>
</svg>
