<svg width="17" height="17" viewBox="0 0 17 17" fill="none" xmlns="http://www.w3.org/2000/svg">
<path d="M12.1356 9.00974C11.6657 9.00974 11.2064 9.14908 10.8157 9.41014C10.425 9.6712 10.1204 10.0423 9.94062 10.4764C9.76079 10.9105 9.71375 11.3882 9.80542 11.8491C9.89709 12.31 10.1234 12.7333 10.4556 13.0656C10.7879 13.3978 11.2112 13.6241 11.6721 13.7158C12.133 13.8075 12.6107 13.7604 13.0448 13.5806C13.479 13.4008 13.85 13.0963 14.1111 12.7055C14.3721 12.3148 14.5115 11.8555 14.5115 11.3856C14.5095 10.7561 14.2586 10.1529 13.8134 9.70779C13.3683 9.26266 12.7651 9.01171 12.1356 9.00974V9.00974Z" stroke="#1A162E" stroke-width="1.00189" stroke-miterlimit="10"/>
<path d="M3.88416 9.00974C3.41426 9.00974 2.95491 9.14908 2.5642 9.41014C2.1735 9.6712 1.86898 10.0423 1.68915 10.4764C1.50933 10.9105 1.46228 11.3882 1.55395 11.8491C1.64563 12.31 1.8719 12.7333 2.20417 13.0656C2.53644 13.3978 2.95978 13.6241 3.42065 13.7158C3.88152 13.8075 4.35923 13.7604 4.79336 13.5806C5.22749 13.4008 5.59855 13.0963 5.85961 12.7055C6.12067 12.3148 6.26002 11.8555 6.26002 11.3856C6.25804 10.7561 6.00709 10.1529 5.56196 9.70779C5.11683 9.26266 4.51367 9.01171 3.88416 9.00974Z" stroke="#1A162E" stroke-width="1.00189" stroke-miterlimit="10"/>
<path d="M8.00951 11.2608V8.5723L6.00879 7.25932L8.50969 4.50833L9.76014 6.75914H11.5108" stroke="#1A162E" stroke-width="1.00189" stroke-linecap="round" stroke-linejoin="round"/>
<path d="M10.0105 4.25975C10.1424 4.26021 10.273 4.23453 10.3948 4.18419C10.5167 4.13385 10.6274 4.05986 10.7204 3.96649C10.8135 3.87312 10.8872 3.76223 10.9371 3.64022C10.9871 3.51821 11.0123 3.38751 11.0115 3.25567C11.0129 3.12449 10.9882 2.99434 10.9388 2.87282C10.8894 2.75131 10.8162 2.64087 10.7236 2.54796C10.631 2.45505 10.5208 2.38154 10.3994 2.33173C10.278 2.28191 10.148 2.2568 10.0168 2.25784C9.88533 2.25743 9.75509 2.28292 9.6335 2.33284C9.5119 2.38276 9.40132 2.45615 9.30808 2.5488C9.11978 2.73593 9.01353 2.9902 9.0127 3.25567C9.01187 3.52114 9.11653 3.77606 9.30366 3.96437C9.49079 4.15267 9.74506 4.25892 10.0105 4.25975Z" fill="#1A162E"/>
</svg>
