<svg width="17" height="17" viewBox="0 0 17 17" fill="none" xmlns="http://www.w3.org/2000/svg">
<g clip-path="url(#clip0_5_1347)">
<path d="M8.06134 5.26823C8.56145 3.29406 10.4503 2.28602 14.5628 2.26758C14.6285 2.26733 14.6936 2.2801 14.7544 2.30515C14.8152 2.33019 14.8704 2.36702 14.9169 2.41351C14.9634 2.46 15.0003 2.51523 15.0253 2.57601C15.0503 2.6368 15.0631 2.70195 15.0629 2.76769V11.7696C15.0629 11.9023 15.0102 12.0295 14.9164 12.1233C14.8226 12.2171 14.6954 12.2698 14.5628 12.2698C10.5619 12.2698 9.01624 13.0765 8.06134 14.2702C7.11207 13.0824 5.5608 12.2698 1.55993 12.2698C1.25111 12.2698 1.05982 12.0181 1.05982 11.7093V2.76769C1.05957 2.70195 1.07234 2.6368 1.09738 2.57601C1.12243 2.51523 1.15925 2.46 1.20574 2.41351C1.25223 2.36702 1.30746 2.33019 1.36825 2.30515C1.42904 2.2801 1.49418 2.26733 1.55993 2.26758C5.67238 2.28602 7.56123 3.29406 8.06134 5.26823Z" stroke="#1A162E" stroke-width="1.00189" stroke-linecap="round" stroke-linejoin="round"/>
<path d="M8.06104 5.2677V14.2697" stroke="#1A162E" stroke-width="1.00189" stroke-linecap="round" stroke-linejoin="round"/>
</g>
<defs>
<clipPath id="clip0_5_1347">
<rect width="16.0035" height="16.0035" fill="white" transform="translate(0.0598145 0.26709)"/>
</clipPath>
</defs>
</svg>
