<svg width="17" height="17" viewBox="0 0 17 17" fill="none" xmlns="http://www.w3.org/2000/svg">
<g clip-path="url(#clip0_5_1618)">
<path d="M5.50879 13.0368V15.0387" stroke="#1A162E" stroke-width="1.00189" stroke-linecap="round" stroke-linejoin="round"/>
<path d="M2.50876 1.03418H8.51007C8.77534 1.03418 9.02975 1.13956 9.21733 1.32714C9.40491 1.51471 9.51029 1.76912 9.51029 2.0344V14.9122C9.51029 14.9454 9.49711 14.9772 9.47367 15.0006C9.45022 15.0241 9.41842 15.0372 9.38526 15.0372H1.50854V2.0344C1.50854 1.76912 1.61392 1.51471 1.8015 1.32714C1.98908 1.13956 2.24349 1.03418 2.50876 1.03418V1.03418Z" stroke="#1A162E" stroke-width="1.00189" stroke-linecap="round" stroke-linejoin="round"/>
<path d="M10.0101 6.03491H13.5109C13.7762 6.03491 14.0306 6.14029 14.2181 6.32787C14.4057 6.51545 14.5111 6.76986 14.5111 7.03513V15.0369H9.51001V6.53502C9.51001 6.40238 9.5627 6.27518 9.65649 6.18139C9.75028 6.0876 9.87748 6.03491 10.0101 6.03491Z" stroke="#1A162E" stroke-width="1.00189" stroke-linecap="round" stroke-linejoin="round"/>
<path d="M3.07883 13.5417C2.97433 13.5554 2.86816 13.536 2.77524 13.4862C2.68232 13.4365 2.60731 13.3589 2.56073 13.2643C2.51416 13.1698 2.49836 13.063 2.51555 12.959C2.53274 12.8551 2.58206 12.7591 2.65659 12.6845C2.73111 12.61 2.82711 12.5607 2.93109 12.5435C3.03508 12.5263 3.14184 12.5421 3.23639 12.5887C3.33093 12.6353 3.40853 12.7103 3.45827 12.8032C3.50801 12.8961 3.52741 13.0023 3.51374 13.1068C3.49932 13.2171 3.44886 13.3195 3.37021 13.3982C3.29156 13.4768 3.18912 13.5273 3.07883 13.5417Z" fill="#1A162E"/>
<path d="M3.07883 11.041C2.97433 11.0546 2.86816 11.0352 2.77524 10.9855C2.68232 10.9357 2.60731 10.8582 2.56073 10.7636C2.51416 10.6691 2.49836 10.5623 2.51555 10.4583C2.53274 10.3543 2.58206 10.2583 2.65659 10.1838C2.73111 10.1093 2.82711 10.06 2.93109 10.0428C3.03508 10.0256 3.14184 10.0414 3.23639 10.088C3.33093 10.1345 3.40853 10.2095 3.45827 10.3025C3.50801 10.3954 3.52741 10.5015 3.51374 10.6061C3.49932 10.7163 3.44886 10.8188 3.37021 10.8974C3.29156 10.9761 3.18912 11.0265 3.07883 11.041Z" fill="#1A162E"/>
<path d="M3.07883 8.54023C2.97433 8.5539 2.86816 8.5345 2.77524 8.48476C2.68232 8.43501 2.60731 8.35742 2.56073 8.26288C2.51416 8.16833 2.49836 8.06157 2.51555 7.95758C2.53274 7.8536 2.58206 7.7576 2.65659 7.68307C2.73111 7.60855 2.82711 7.55923 2.93109 7.54204C3.03508 7.52485 3.14184 7.54065 3.23639 7.58722C3.33093 7.6338 3.40853 7.70881 3.45827 7.80173C3.50801 7.89465 3.52741 8.00082 3.51374 8.10532C3.49932 8.21561 3.44886 8.31805 3.37021 8.3967C3.29156 8.47535 3.18912 8.52581 3.07883 8.54023Z" fill="#1A162E"/>
<path d="M3.07883 6.03987C2.97433 6.05353 2.86816 6.03414 2.77524 5.98439C2.68232 5.93465 2.60731 5.85706 2.56073 5.76251C2.51416 5.66796 2.49836 5.5612 2.51555 5.45722C2.53274 5.35323 2.58206 5.25724 2.65659 5.18271C2.73111 5.10818 2.82711 5.05886 2.93109 5.04167C3.03508 5.02448 3.14184 5.04028 3.23639 5.08686C3.33093 5.13343 3.40853 5.20844 3.45827 5.30136C3.50801 5.39429 3.52741 5.50045 3.51374 5.60496C3.49932 5.71525 3.44886 5.81768 3.37021 5.89633C3.29156 5.97498 3.18912 6.02544 3.07883 6.03987Z" fill="#1A162E"/>
<path d="M3.07883 3.53926C2.97433 3.55292 2.86816 3.53352 2.77524 3.48378C2.68232 3.43404 2.60731 3.35645 2.56073 3.2619C2.51416 3.16735 2.49836 3.06059 2.51555 2.95661C2.53274 2.85262 2.58206 2.75663 2.65659 2.6821C2.73111 2.60757 2.82711 2.55825 2.93109 2.54106C3.03508 2.52387 3.14184 2.53967 3.23639 2.58625C3.33093 2.63282 3.40853 2.70783 3.45827 2.80075C3.50801 2.89368 3.52741 2.99984 3.51374 3.10435C3.49932 3.21464 3.44886 3.31707 3.37021 3.39572C3.29156 3.47437 3.18912 3.52483 3.07883 3.53926Z" fill="#1A162E"/>
<path d="M5.57908 11.041C5.47457 11.0546 5.36841 11.0352 5.27549 10.9855C5.18257 10.9357 5.10755 10.8582 5.06098 10.7636C5.0144 10.6691 4.9986 10.5623 5.01579 10.4583C5.03298 10.3543 5.0823 10.2583 5.15683 10.1838C5.23136 10.1093 5.32735 10.06 5.43134 10.0428C5.53532 10.0256 5.64208 10.0414 5.73663 10.088C5.83118 10.1345 5.90877 10.2095 5.95851 10.3025C6.00826 10.3954 6.02766 10.5015 6.01399 10.6061C5.99956 10.7163 5.9491 10.8188 5.87045 10.8974C5.7918 10.9761 5.68937 11.0265 5.57908 11.041Z" fill="#1A162E"/>
<path d="M5.57908 8.54023C5.47457 8.5539 5.36841 8.5345 5.27549 8.48476C5.18257 8.43501 5.10755 8.35742 5.06098 8.26288C5.0144 8.16833 4.9986 8.06157 5.01579 7.95758C5.03298 7.8536 5.0823 7.7576 5.15683 7.68307C5.23136 7.60855 5.32735 7.55923 5.43134 7.54204C5.53532 7.52485 5.64208 7.54065 5.73663 7.58722C5.83118 7.6338 5.90877 7.70881 5.95851 7.80173C6.00826 7.89465 6.02766 8.00082 6.01399 8.10532C5.99956 8.21561 5.9491 8.31805 5.87045 8.3967C5.7918 8.47535 5.68937 8.52581 5.57908 8.54023Z" fill="#1A162E"/>
<path d="M5.57908 6.03987C5.47457 6.05353 5.36841 6.03414 5.27549 5.98439C5.18257 5.93465 5.10755 5.85706 5.06098 5.76251C5.0144 5.66796 4.9986 5.5612 5.01579 5.45722C5.03298 5.35323 5.0823 5.25724 5.15683 5.18271C5.23136 5.10818 5.32735 5.05886 5.43134 5.04167C5.53532 5.02448 5.64208 5.04028 5.73663 5.08686C5.83118 5.13343 5.90877 5.20844 5.95851 5.30136C6.00826 5.39429 6.02766 5.50045 6.01399 5.60496C5.99956 5.71525 5.9491 5.81768 5.87045 5.89633C5.7918 5.97498 5.68937 6.02544 5.57908 6.03987Z" fill="#1A162E"/>
<path d="M5.57908 3.53926C5.47457 3.55292 5.36841 3.53352 5.27549 3.48378C5.18257 3.43404 5.10755 3.35645 5.06098 3.2619C5.0144 3.16735 4.9986 3.06059 5.01579 2.95661C5.03298 2.85262 5.0823 2.75663 5.15683 2.6821C5.23136 2.60757 5.32735 2.55825 5.43134 2.54106C5.53532 2.52387 5.64208 2.53967 5.73663 2.58625C5.83118 2.63282 5.90877 2.70783 5.95851 2.80075C6.00826 2.89368 6.02766 2.99984 6.01399 3.10435C5.99956 3.21464 5.9491 3.31707 5.87045 3.39572C5.7918 3.47437 5.68937 3.52483 5.57908 3.53926Z" fill="#1A162E"/>
<path d="M8.07981 13.5417C7.9753 13.5554 7.86914 13.536 7.77622 13.4862C7.6833 13.4365 7.60829 13.3589 7.56171 13.2643C7.51513 13.1698 7.49933 13.063 7.51652 12.959C7.53371 12.8551 7.58303 12.7591 7.65756 12.6845C7.73209 12.61 7.82808 12.5607 7.93207 12.5435C8.03606 12.5263 8.14281 12.5421 8.23736 12.5887C8.33191 12.6353 8.4095 12.7103 8.45924 12.8032C8.50899 12.8961 8.52839 13.0023 8.51472 13.1068C8.5003 13.2171 8.44984 13.3195 8.37118 13.3982C8.29253 13.4768 8.1901 13.5273 8.07981 13.5417Z" fill="#1A162E"/>
<path d="M8.07981 11.041C7.9753 11.0546 7.86914 11.0352 7.77622 10.9855C7.6833 10.9357 7.60829 10.8582 7.56171 10.7636C7.51513 10.6691 7.49933 10.5623 7.51652 10.4583C7.53371 10.3543 7.58303 10.2583 7.65756 10.1838C7.73209 10.1093 7.82808 10.06 7.93207 10.0428C8.03606 10.0256 8.14281 10.0414 8.23736 10.088C8.33191 10.1345 8.4095 10.2095 8.45924 10.3025C8.50899 10.3954 8.52839 10.5015 8.51472 10.6061C8.5003 10.7163 8.44984 10.8188 8.37118 10.8974C8.29253 10.9761 8.1901 11.0265 8.07981 11.041Z" fill="#1A162E"/>
<path d="M8.07981 8.54023C7.9753 8.5539 7.86914 8.5345 7.77622 8.48476C7.6833 8.43501 7.60829 8.35742 7.56171 8.26288C7.51513 8.16833 7.49933 8.06157 7.51652 7.95758C7.53371 7.8536 7.58303 7.7576 7.65756 7.68307C7.73209 7.60855 7.82808 7.55923 7.93207 7.54204C8.03606 7.52485 8.14281 7.54065 8.23736 7.58722C8.33191 7.6338 8.4095 7.70881 8.45924 7.80173C8.50899 7.89465 8.52839 8.00082 8.51472 8.10532C8.5003 8.21561 8.44984 8.31805 8.37118 8.3967C8.29253 8.47535 8.1901 8.52581 8.07981 8.54023Z" fill="#1A162E"/>
<path d="M8.37364 5.8921C8.57008 5.69566 8.56928 5.37636 8.37185 5.17892C8.17442 4.98149 7.85512 4.9807 7.65867 5.17714C7.46223 5.37359 7.46303 5.69289 7.66046 5.89032C7.85789 6.08775 8.17719 6.08855 8.37364 5.8921Z" fill="#1A162E"/>
<path d="M8.07981 3.53926C7.9753 3.55292 7.86914 3.53352 7.77622 3.48378C7.6833 3.43404 7.60829 3.35645 7.56171 3.2619C7.51513 3.16735 7.49933 3.06059 7.51652 2.95661C7.53371 2.85262 7.58303 2.75663 7.65756 2.6821C7.73209 2.60757 7.82808 2.55825 7.93207 2.54106C8.03606 2.52387 8.14281 2.53967 8.23736 2.58625C8.33191 2.63282 8.4095 2.70783 8.45924 2.80075C8.50899 2.89368 8.52839 2.99984 8.51472 3.10435C8.5003 3.21464 8.44984 3.31707 8.37118 3.39572C8.29253 3.47437 8.1901 3.52483 8.07981 3.53926Z" fill="#1A162E"/>
<path d="M12.5154 12.5365C12.4155 12.5365 12.318 12.5661 12.235 12.6215C12.152 12.677 12.0873 12.7558 12.0492 12.848C12.011 12.9402 12.001 13.0417 12.0204 13.1396C12.0399 13.2374 12.088 13.3273 12.1585 13.3979C12.2291 13.4685 12.319 13.5165 12.4169 13.536C12.5148 13.5555 12.6162 13.5455 12.7085 13.5073C12.8007 13.4691 12.8795 13.4044 12.9349 13.3215C12.9904 13.2385 13.02 13.1409 13.02 13.0411C13.02 12.9073 12.9668 12.7789 12.8722 12.6843C12.7775 12.5897 12.6492 12.5365 12.5154 12.5365Z" fill="#1A162E"/>
<path d="M12.5154 10.0358C12.4155 10.0358 12.318 10.0654 12.235 10.1208C12.152 10.1763 12.0873 10.2551 12.0492 10.3473C12.011 10.4395 12.001 10.5409 12.0204 10.6388C12.0399 10.7367 12.088 10.8266 12.1585 10.8972C12.2291 10.9678 12.319 11.0158 12.4169 11.0353C12.5148 11.0548 12.6162 11.0448 12.7085 11.0066C12.8007 10.9684 12.8795 10.9037 12.9349 10.8207C12.9904 10.7377 13.02 10.6402 13.02 10.5404C13.02 10.4065 12.9668 10.2782 12.8722 10.1836C12.7775 10.0889 12.6492 10.0358 12.5154 10.0358Z" fill="#1A162E"/>
<path d="M12.5154 7.53503C12.4155 7.53503 12.318 7.56463 12.235 7.62008C12.152 7.67552 12.0873 7.75433 12.0492 7.84654C12.011 7.93874 12.001 8.0402 12.0204 8.13809C12.0399 8.23597 12.088 8.32588 12.1585 8.39645C12.2291 8.46702 12.319 8.51508 12.4169 8.53455C12.5148 8.55402 12.6162 8.54403 12.7085 8.50584C12.8007 8.46765 12.8795 8.40297 12.9349 8.31999C12.9904 8.237 13.02 8.13944 13.02 8.03964C13.02 7.90581 12.9668 7.77746 12.8722 7.68283C12.7775 7.5882 12.6492 7.53503 12.5154 7.53503Z" fill="#1A162E"/>
<path d="M10.5151 12.5365C10.4153 12.5365 10.3177 12.5661 10.2348 12.6215C10.1518 12.677 10.0871 12.7558 10.0489 12.848C10.0107 12.9402 10.0007 13.0417 10.0202 13.1396C10.0397 13.2374 10.0877 13.3273 10.1583 13.3979C10.2289 13.4685 10.3188 13.5165 10.4167 13.536C10.5145 13.5555 10.616 13.5455 10.7082 13.5073C10.8004 13.4691 10.8792 13.4044 10.9347 13.3215C10.9901 13.2385 11.0197 13.1409 11.0197 13.0411C11.0197 12.9073 10.9666 12.7789 10.8719 12.6843C10.7773 12.5897 10.6489 12.5365 10.5151 12.5365Z" fill="#1A162E"/>
<path d="M10.5151 10.0358C10.4153 10.0358 10.3177 10.0654 10.2348 10.1208C10.1518 10.1763 10.0871 10.2551 10.0489 10.3473C10.0107 10.4395 10.0007 10.5409 10.0202 10.6388C10.0397 10.7367 10.0877 10.8266 10.1583 10.8972C10.2289 10.9678 10.3188 11.0158 10.4167 11.0353C10.5145 11.0548 10.616 11.0448 10.7082 11.0066C10.8004 10.9684 10.8792 10.9037 10.9347 10.8207C10.9901 10.7377 11.0197 10.6402 11.0197 10.5404C11.0197 10.4065 10.9666 10.2782 10.8719 10.1836C10.7773 10.0889 10.6489 10.0358 10.5151 10.0358Z" fill="#1A162E"/>
<path d="M10.5151 7.53503C10.4153 7.53503 10.3177 7.56463 10.2348 7.62008C10.1518 7.67552 10.0871 7.75433 10.0489 7.84654C10.0107 7.93874 10.0007 8.0402 10.0202 8.13809C10.0397 8.23597 10.0877 8.32588 10.1583 8.39645C10.2289 8.46702 10.3188 8.51508 10.4167 8.53455C10.5145 8.55402 10.616 8.54403 10.7082 8.50584C10.8004 8.46765 10.8792 8.40297 10.9347 8.31999C10.9901 8.237 11.0197 8.13944 11.0197 8.03964C11.0197 7.90581 10.9666 7.77746 10.8719 7.68283C10.7773 7.5882 10.6489 7.53503 10.5151 7.53503Z" fill="#1A162E"/>
</g>
<defs>
<clipPath id="clip0_5_1618">
<rect width="16.0035" height="16.0035" fill="white" transform="translate(0.00756836 0.0339355)"/>
</clipPath>
</defs>
</svg>
