<svg width="17" height="17" viewBox="0 0 17 17" fill="none" xmlns="http://www.w3.org/2000/svg">
<path d="M12.4715 6.06211C12.2835 6.24888 12.0293 6.35371 11.7643 6.35371C11.4993 6.35371 11.2451 6.24888 11.0571 6.06211L10.2266 5.23162C10.0397 5.04367 9.93477 4.78936 9.93477 4.52428C9.93477 4.25919 10.0397 4.00488 10.2266 3.81694L12.1064 1.93621C12.1101 1.93264 12.1129 1.92819 12.1145 1.92328C12.1161 1.91837 12.1164 1.91314 12.1155 1.90807C12.1146 1.90299 12.1124 1.89822 12.1092 1.89419C12.106 1.89016 12.1018 1.88698 12.0971 1.88495C10.8837 1.36484 9.31051 1.6299 8.31154 2.62168C7.35571 3.57032 7.30132 4.99719 7.6514 6.24246C7.70113 6.41947 7.70101 6.60677 7.65104 6.78371C7.60107 6.96065 7.50319 7.12035 7.36821 7.24518L2.16082 12.0009C2.00719 12.1371 1.88303 12.3033 1.796 12.4893C1.70897 12.6753 1.66089 12.8771 1.65473 13.0823C1.64857 13.2876 1.68445 13.4919 1.76017 13.6827C1.8359 13.8736 1.94985 14.047 2.09504 14.1921C2.24024 14.3373 2.41359 14.4513 2.60445 14.527C2.7953 14.6027 2.99963 14.6386 3.20487 14.6325C3.41011 14.6263 3.61192 14.5782 3.79789 14.4912C3.98386 14.4042 4.15007 14.28 4.28629 14.1264L9.09546 8.90648C9.21871 8.77377 9.37575 8.6771 9.54974 8.62683C9.72374 8.57655 9.90814 8.57458 10.0832 8.62111C11.3191 8.95212 12.7256 8.88992 13.669 7.95878C14.6845 6.95856 14.9036 5.19067 14.4113 4.17889C14.4091 4.17447 14.4059 4.17064 14.4019 4.16771C14.3979 4.16478 14.3933 4.16284 14.3884 4.16205C14.3835 4.16125 14.3785 4.16163 14.3738 4.16315C14.3691 4.16466 14.3648 4.16727 14.3613 4.17076L12.4715 6.06211Z" stroke="#1A162E" stroke-width="1.00189" stroke-miterlimit="10" stroke-linecap="round"/>
<path d="M3.16452 13.6353C3.44321 13.6353 3.66913 13.4094 3.66913 13.1307C3.66913 12.852 3.44321 12.6261 3.16452 12.6261C2.88583 12.6261 2.65991 12.852 2.65991 13.1307C2.65991 13.4094 2.88583 13.6353 3.16452 13.6353Z" fill="#1A162E"/>
</svg>
