<svg width="17" height="17" viewBox="0 0 17 17" fill="none" xmlns="http://www.w3.org/2000/svg">
<g clip-path="url(#clip0_5_1450)">
<path d="M9.66881 12.1259V11.3757C9.66881 10.4693 10.6546 9.6119 11.2942 9.00021C12.1956 8.13846 12.6695 6.98071 12.6695 5.62447C12.6695 3.12393 10.6775 1.12349 8.16848 1.12349C7.57694 1.12184 6.99091 1.23714 6.44408 1.46275C5.89725 1.68836 5.40041 2.01984 4.98213 2.43812C4.56384 2.8564 4.23237 3.35324 4.00675 3.90007C3.78114 4.4469 3.66585 5.03293 3.6675 5.62447C3.6675 6.93226 4.16167 8.16846 5.0428 9.00021C5.67887 9.60065 6.66815 10.4599 6.66815 11.3757V12.1259" stroke="#1A162E" stroke-width="1.00189" stroke-linecap="round" stroke-linejoin="round"/>
<path d="M7.16846 15.1265H9.17036" stroke="#1A162E" stroke-width="1.00189" stroke-linecap="round" stroke-linejoin="round"/>
<path d="M6.66846 13.6262H9.67132" stroke="#1A162E" stroke-width="1.00189" stroke-linecap="round" stroke-linejoin="round"/>
<path d="M8.16895 12.1268V8.12537" stroke="#1A162E" stroke-width="1.00189" stroke-linecap="round" stroke-linejoin="round"/>
<path d="M9.35798 7.62482C9.35798 7.62482 8.68515 8.12529 8.16934 8.12529C7.65354 8.12529 6.98071 7.62482 6.98071 7.62482" stroke="#1A162E" stroke-width="1.00189" stroke-linecap="round" stroke-linejoin="round"/>
</g>
<defs>
<clipPath id="clip0_5_1450">
<rect width="16.0035" height="16.0035" fill="white" transform="translate(0.16748 0.123352)"/>
</clipPath>
</defs>
</svg>
