<svg width="17" height="17" viewBox="0 0 17 17" fill="none" xmlns="http://www.w3.org/2000/svg">
<g clip-path="url(#clip0_5_1104)">
<path d="M13.8265 6.00034C13.6674 6.15842 13.4522 6.24714 13.228 6.24714C13.0037 6.24714 12.7885 6.15842 12.6294 6.00034L11.9267 5.29737C11.7686 5.13836 11.6798 4.92322 11.6798 4.69896C11.6798 4.4747 11.7686 4.25956 11.9267 4.10055L13.5174 2.50989C13.5205 2.50683 13.5227 2.50307 13.524 2.49894C13.5253 2.49481 13.5255 2.49043 13.5247 2.48618C13.5239 2.48192 13.5221 2.47793 13.5194 2.47455C13.5167 2.47117 13.5132 2.46849 13.5093 2.46676C12.4828 2.02728 11.1516 2.25077 10.3064 3.09002C9.49746 3.893 9.45151 5.09889 9.74782 6.15318C9.78993 6.30294 9.78983 6.46143 9.74752 6.61113C9.70521 6.76083 9.62235 6.89593 9.50809 7.00149L4.10066 12.0263C3.97159 12.1419 3.86745 12.2826 3.79461 12.4398C3.72176 12.597 3.68174 12.7673 3.67699 12.9405C3.67224 13.1137 3.70286 13.286 3.76698 13.447C3.8311 13.6079 3.92737 13.7541 4.0499 13.8766C4.17244 13.999 4.31866 14.0952 4.47964 14.1593C4.64062 14.2233 4.81296 14.2538 4.98614 14.249C5.15932 14.2442 5.32969 14.204 5.48684 14.1311C5.64399 14.0582 5.78461 13.954 5.90011 13.8249L10.9684 8.40805C11.0728 8.29567 11.2059 8.21388 11.3533 8.17147C11.5008 8.12907 11.657 8.12765 11.8051 8.16737C12.851 8.44681 14.0397 8.3943 14.8392 7.60662C15.6985 6.76019 15.8838 5.26424 15.4675 4.40812C15.4656 4.40436 15.4629 4.4011 15.4595 4.39862C15.4561 4.39613 15.4522 4.39449 15.448 4.39382C15.4439 4.39314 15.4396 4.39347 15.4356 4.39476C15.4316 4.39605 15.428 4.39827 15.425 4.40124L13.8265 6.00034Z" stroke="#1A162E" stroke-width="1.00189" stroke-miterlimit="10" stroke-linecap="round"/>
<path d="M7.17888 9.1241C6.63211 8.59234 6.38155 8.34492 6.2092 8.17664C6.12295 8.09094 6.06633 7.97994 6.04759 7.85981C6.02885 7.73968 6.04898 7.6167 6.10504 7.50881C6.1346 7.45576 6.17145 7.40711 6.21452 7.3643L6.70499 6.88603C6.75574 6.83519 6.81544 6.79415 6.88109 6.76498C6.98473 6.7191 7.09975 6.70537 7.21127 6.72556C7.3228 6.74574 7.4257 6.79892 7.50669 6.87821C7.67716 7.04368 7.98934 7.34741 8.55175 7.89543" stroke="#1A162E" stroke-width="1.00189" stroke-linecap="round" stroke-linejoin="round"/>
<path d="M10.0869 9.35069C11.367 10.5417 12.9198 11.9538 13.5256 12.4584C13.5709 12.4957 13.6079 12.5421 13.6342 12.5946C13.6605 12.6471 13.6755 12.7046 13.6783 12.7632C13.6811 12.8219 13.6715 12.8805 13.6503 12.9352C13.6291 12.99 13.5966 13.0396 13.555 13.0811L12.5115 14.1243C12.4691 14.1658 12.4186 14.1982 12.3632 14.2196C12.3078 14.241 12.2486 14.2508 12.1893 14.2486C12.1299 14.2464 12.0717 14.2321 12.018 14.2066C11.9644 14.1812 11.9165 14.1451 11.8772 14.1005C11.3605 13.5009 9.96748 12.0026 8.77393 10.7556" stroke="#1A162E" stroke-width="1.00189" stroke-linecap="round" stroke-linejoin="round"/>
<path d="M0.718184 6.29374L1.63745 5.39542C1.65149 5.38161 1.66816 5.37076 1.68646 5.36352C1.70477 5.35627 1.72435 5.35277 1.74403 5.35322C1.78371 5.35279 1.82198 5.36794 1.85062 5.39542V5.39542C1.88391 5.42835 1.92426 5.45326 1.96862 5.46826C2.01298 5.48326 2.06017 5.48796 2.10661 5.482C2.22632 5.46887 2.35416 5.43199 2.437 5.35322C2.62454 5.17193 2.40761 4.81466 2.57265 4.58618C2.76136 4.33605 2.96799 4.09996 3.19091 3.87977C3.37845 3.69598 4.12361 2.99458 5.37576 2.49041C5.7762 2.32855 6.20412 2.24556 6.63603 2.24598C7.34213 2.24598 7.88631 2.55855 8.08197 2.73577C8.19942 2.84752 8.30693 2.96925 8.40329 3.0996C8.30919 3.06492 8.21305 3.036 8.11542 3.01302C7.91008 2.96946 7.69947 2.9562 7.49028 2.97364C7.07363 3.00771 6.57102 3.20056 6.30252 3.41123C5.86806 3.75506 5.68145 4.21516 5.65207 4.80873C5.63082 5.25007 5.73709 5.4995 6.78044 6.54316C6.8161 6.58297 6.83492 6.63506 6.83294 6.68847C6.83096 6.74187 6.80833 6.79242 6.76981 6.82948L6.20031 7.3921C6.16062 7.43102 6.10738 7.45306 6.05179 7.45359C5.99619 7.45411 5.94255 7.43308 5.90213 7.39491C5.21635 6.70914 4.75656 6.36063 4.49557 6.20215C4.23457 6.04368 4.02453 5.99898 3.92357 5.98804C3.72529 5.9684 3.52579 6.01066 3.35251 6.10901C3.3221 6.12571 3.2943 6.14677 3.26999 6.17152C3.22941 6.21347 3.19753 6.26304 3.17621 6.31737C3.15489 6.3717 3.14454 6.42972 3.14576 6.48808C3.14698 6.54643 3.15975 6.60396 3.18332 6.65736C3.2069 6.71075 3.24082 6.75894 3.28312 6.79916L3.33657 6.84917C3.35044 6.86266 3.36147 6.87879 3.369 6.89661C3.37653 6.91444 3.38041 6.93359 3.38041 6.95294C3.38041 6.97229 3.37653 6.99145 3.369 7.00927C3.36147 7.02709 3.35044 7.04323 3.33657 7.05671L2.41824 7.95347C2.40433 7.96756 2.38772 7.97869 2.36941 7.98621C2.35109 7.99373 2.33145 7.99748 2.31166 7.99723C2.27198 7.99763 2.23372 7.98248 2.20507 7.95503L0.718184 6.50378C0.691273 6.47544 0.67627 6.43784 0.67627 6.39876C0.67627 6.35967 0.691273 6.32208 0.718184 6.29374V6.29374Z" stroke="#1A162E" stroke-width="1.00189" stroke-linecap="round" stroke-linejoin="round"/>
</g>
<defs>
<clipPath id="clip0_5_1104">
<rect width="16.0035" height="16.0035" fill="white" transform="translate(0.176514 0.245285)"/>
</clipPath>
</defs>
</svg>
