<svg width="17" height="17" viewBox="0 0 17 17" fill="none" xmlns="http://www.w3.org/2000/svg">
<g clip-path="url(#clip0_5_718)">
<path d="M1.29264 6.14569L7.78624 14.5681C7.83344 14.6297 7.89415 14.6795 7.96369 14.7138C8.03323 14.7481 8.10973 14.7659 8.18727 14.7659C8.26481 14.7659 8.3413 14.7481 8.41084 14.7138C8.48038 14.6795 8.5411 14.6297 8.58829 14.5681L15.0819 6.14569C15.1457 6.06256 15.1828 5.96197 15.1881 5.85728C15.1934 5.7526 15.1667 5.64878 15.1116 5.55962L12.9089 2.00416C12.8636 1.93058 12.8002 1.86982 12.7247 1.82764C12.6493 1.78546 12.5643 1.76327 12.4779 1.76317H3.89665C3.81022 1.76327 3.72525 1.78546 3.64981 1.82764C3.57437 1.86982 3.51096 1.93058 3.46562 2.00416L1.26295 5.55962C1.20783 5.64878 1.18115 5.7526 1.18645 5.85728C1.19176 5.96197 1.22879 6.06256 1.29264 6.14569V6.14569Z" stroke="#1A162E" stroke-width="1.00189" stroke-linecap="round" stroke-linejoin="round"/>
<path d="M1.68579 5.76402H14.6886" stroke="#1A162E" stroke-width="1.00189" stroke-linecap="round" stroke-linejoin="round"/>
<path d="M12.6881 2.26345L11.1876 5.76471L8.18652 1.76327" stroke="#1A162E" stroke-width="1.00189" stroke-linecap="round" stroke-linejoin="round"/>
<path d="M3.68652 2.26335L5.18706 5.76461L8.18814 1.76317" stroke="#1A162E" stroke-width="1.00189" stroke-linecap="round" stroke-linejoin="round"/>
<path d="M8.18693 14.2659L5.18628 5.76402" stroke="#1A162E" stroke-width="1.00189" stroke-linecap="round" stroke-linejoin="round"/>
<path d="M8.18652 14.2659L11.1872 5.76402" stroke="#1A162E" stroke-width="1.00189" stroke-linecap="round" stroke-linejoin="round"/>
</g>
<defs>
<clipPath id="clip0_5_718">
<rect width="16.0035" height="16.0035" fill="white" transform="translate(0.18457 0.262802)"/>
</clipPath>
</defs>
</svg>
