<svg width="17" height="17" viewBox="0 0 17 17" fill="none" xmlns="http://www.w3.org/2000/svg">
<path d="M12.9379 7.74317H12.0733C12.0568 7.74317 12.0409 7.73658 12.0291 7.72486C12.0174 7.71314 12.0108 7.69724 12.0108 7.68066V5.26638C12.0108 4.94424 11.8829 4.63529 11.6551 4.4075C11.4273 4.17971 11.1183 4.05174 10.7962 4.05174H8.38192C8.36534 4.05174 8.34944 4.04515 8.33771 4.03343C8.32599 4.02171 8.3194 4.00581 8.3194 3.98923V3.12466C8.3194 2.27635 7.64738 1.5662 6.79907 1.55151C6.59354 1.5479 6.38935 1.58525 6.19841 1.6614C6.00747 1.73754 5.83361 1.85095 5.68697 1.995C5.54032 2.13906 5.42384 2.31087 5.3443 2.50043C5.26477 2.68998 5.22378 2.89347 5.22373 3.09903V3.98923C5.22373 4.00581 5.21714 4.02171 5.20542 4.03343C5.1937 4.04515 5.1778 4.05174 5.16122 4.05174H2.74694C2.4188 4.05273 2.10439 4.18352 1.87236 4.41555C1.64033 4.64758 1.50953 4.962 1.50854 5.29014V7.48999C1.50854 7.50657 1.51513 7.52247 1.52685 7.53419C1.53858 7.54592 1.55448 7.5525 1.57106 7.5525H2.41218C3.33019 7.5525 4.09004 8.34893 4.10286 9.26694C4.11599 10.2006 3.36801 11.0533 2.43718 11.0533H1.57106C1.55448 11.0533 1.53858 11.0599 1.52685 11.0716C1.51513 11.0833 1.50854 11.0992 1.50854 11.1158V13.3156C1.50953 13.6438 1.64033 13.9582 1.87236 14.1902C2.10439 14.4222 2.4188 14.553 2.74694 14.554H4.94679C4.96337 14.554 4.97927 14.5474 4.991 14.5357C5.00272 14.524 5.00931 14.5081 5.00931 14.4915V13.8373C5.00931 12.8909 5.78291 12.076 6.72843 12.0538C7.66926 12.0319 8.51007 12.6886 8.51007 13.6254V14.4915C8.51007 14.5081 8.51666 14.524 8.52838 14.5357C8.5401 14.5474 8.556 14.554 8.57258 14.554H10.7962C11.1183 14.554 11.4273 14.4261 11.6551 14.1983C11.8829 13.9705 12.0108 13.6615 12.0108 13.3394V10.9014C12.0108 10.8848 12.0174 10.8689 12.0291 10.8572C12.0409 10.8454 12.0568 10.8388 12.0733 10.8388H12.9635C13.8272 10.8388 14.5114 10.1303 14.5114 9.2635C14.5114 8.39675 13.7862 7.74317 12.9379 7.74317Z" stroke="#1A162E" stroke-width="1.00189" stroke-linecap="round" stroke-linejoin="round"/>
</svg>
