<svg width="17" height="17" viewBox="0 0 17 17" fill="none" xmlns="http://www.w3.org/2000/svg">
<path d="M11.1978 2.83289C9.16859 2.83289 8.16837 4.83332 8.16837 4.83332C8.16837 4.83332 7.16816 2.83289 5.13896 2.83289C3.48986 2.83289 2.18395 4.21256 2.16707 5.85886C2.13269 9.27616 4.87797 11.7064 7.88706 13.7487C7.97002 13.8051 8.06804 13.8353 8.16837 13.8353C8.26871 13.8353 8.36673 13.8051 8.44969 13.7487C11.4585 11.7064 14.2038 9.27616 14.1697 5.85886C14.1528 4.21256 12.8469 2.83289 11.1978 2.83289Z" stroke="#1A162E" stroke-width="1.00189" stroke-linecap="round" stroke-linejoin="round"/>
<path d="M1.66724 8.33418H5.168L6.66833 5.33353L8.16865 10.3346L9.66898 7.33396L10.6692 9.3344H14.6701" stroke="#1A162E" stroke-width="1.00189" stroke-linecap="round" stroke-linejoin="round"/>
</svg>
