<svg width="17" height="17" viewBox="0 0 17 17" fill="none" xmlns="http://www.w3.org/2000/svg">
<path d="M3.68652 10.3346C3.68652 7.4277 7.56237 5.17721 6.68718 1.83273C8.75013 1.83273 12.6885 4.83339 12.6885 10.3346C12.6885 11.5283 12.2143 12.6732 11.3702 13.5173C10.5261 14.3614 9.38124 14.8356 8.1875 14.8356C6.99377 14.8356 5.84893 14.3614 5.00483 13.5173C4.16073 12.6732 3.68652 11.5283 3.68652 10.3346V10.3346Z" stroke="#1A162E" stroke-width="1.00189" stroke-linecap="round" stroke-linejoin="round"/>
<path d="M10.1882 11.8356C10.1882 13.6397 9.18785 14.3365 8.18749 14.3365C7.18713 14.3365 6.18677 13.6397 6.18677 11.8356C6.18677 10.0315 7.43722 9.14714 7.18713 7.83417C8.5001 7.83417 10.1882 10.0315 10.1882 11.8356Z" stroke="#1A162E" stroke-width="1.00189" stroke-linecap="round" stroke-linejoin="round"/>
</svg>
