<svg width="17" height="17" viewBox="0 0 17 17" fill="none" xmlns="http://www.w3.org/2000/svg">
<g clip-path="url(#clip0_5_860)">
<path d="M10.0566 1.36442L3.20288 9.83501H7.20375L6.21885 15.2496C6.21698 15.2603 6.21745 15.2712 6.22025 15.2816C6.22305 15.292 6.2281 15.3017 6.23504 15.3099C6.24199 15.3182 6.25066 15.3248 6.26044 15.3294C6.27023 15.3339 6.28089 15.3362 6.29168 15.3362V15.3362C6.30316 15.3362 6.31447 15.3335 6.32473 15.3284C6.33498 15.3232 6.3439 15.3157 6.35075 15.3065L13.2051 6.83436H9.20419L10.1938 1.41912C10.1951 1.40833 10.1941 1.39738 10.1909 1.387C10.1877 1.37662 10.1823 1.36705 10.1751 1.35891C10.1678 1.35078 10.159 1.34428 10.1491 1.33984C10.1391 1.3354 10.1284 1.33312 10.1175 1.33316V1.33316C10.1056 1.33321 10.0939 1.33606 10.0833 1.34149C10.0727 1.34693 10.0635 1.35478 10.0566 1.36442V1.36442Z" stroke="#1A162E" stroke-width="1.00189" stroke-linecap="round" stroke-linejoin="round"/>
</g>
<defs>
<clipPath id="clip0_5_860">
<rect width="16.0035" height="16.0035" fill="white" transform="translate(0.202637 0.332428)"/>
</clipPath>
</defs>
</svg>
