<svg width="17" height="17" viewBox="0 0 17 17" fill="none" xmlns="http://www.w3.org/2000/svg">
<g clip-path="url(#clip0_5_1511)">
<path d="M6.3109 7.76638C6.58631 9.59891 6.08175 10.6008 4.65686 10.8115C3.07348 11.0457 2.42106 9.98499 2.14565 8.15245C1.7752 5.68657 2.64583 4.15289 3.88721 4.0541C5.01699 3.96438 6.03517 5.93415 6.3109 7.76638Z" stroke="#1A162E" stroke-width="1.00189" stroke-miterlimit="10"/>
<path d="M7.05082 12.8512C7.1487 13.8918 6.58616 14.8631 5.7375 15.0294C4.88072 15.197 3.90167 14.5175 3.70217 13.4913C3.50267 12.465 4.2572 12.4106 5.18184 12.2339C6.10648 12.0572 6.93262 11.596 7.05082 12.8512Z" stroke="#1A162E" stroke-width="1.00189" stroke-miterlimit="10"/>
<path d="M9.8112 4.76527C9.53579 6.5978 10.0403 7.59973 11.4649 7.81043C13.0486 8.04458 13.7007 6.98388 13.9761 5.15134C14.3469 2.68514 13.476 1.14302 12.2349 1.05299C11.097 0.970463 10.0869 2.93273 9.8112 4.76527Z" stroke="#1A162E" stroke-width="1.00189" stroke-miterlimit="10"/>
<path d="M9.07207 9.85066C8.9742 10.891 9.53674 11.8625 10.3854 12.0289C11.2422 12.1965 12.2212 11.517 12.4207 10.4907C12.6202 9.46448 11.8657 9.41007 10.9411 9.23309C10.0164 9.0561 9.19027 8.59519 9.07207 9.85066Z" stroke="#1A162E" stroke-width="1.00189" stroke-miterlimit="10"/>
</g>
<defs>
<clipPath id="clip0_5_1511">
<rect width="16.0035" height="16.0035" fill="white" transform="translate(0.0588379 0.0505981)"/>
</clipPath>
</defs>
</svg>
