<svg width="17" height="17" viewBox="0 0 17 17" fill="none" xmlns="http://www.w3.org/2000/svg">
<g clip-path="url(#clip0_5_831)">
<path d="M14.6808 7.82804C14.1057 5.2281 13.2527 3.56962 11.8855 3.16547C11.6207 3.08822 11.3462 3.04969 11.0704 3.05107C10.2299 3.05107 9.56659 3.55118 8.0697 3.55118C6.57281 3.55118 5.90829 3.05107 5.06904 3.05107C4.78171 3.04958 4.49558 3.08808 4.21886 3.16547C2.84981 3.56962 2.004 5.22967 1.42231 7.82804C0.828432 10.4821 0.935955 12.5791 2.09683 12.9817C2.90951 13.263 3.63623 12.6813 4.32451 11.8252C5.10593 10.85 6.06833 10.5499 8.0697 10.5499C10.0711 10.5499 10.996 10.85 11.7786 11.8252C12.4663 12.6819 13.2199 13.2564 14.011 12.9867C15.2931 12.5488 15.275 10.5133 14.6808 7.82804Z" stroke="#1A162E" stroke-width="1.00189" stroke-miterlimit="10"/>
<path d="M9.19773 7.68306C9.54465 7.68306 9.82588 7.40182 9.82588 7.05491C9.82588 6.70799 9.54465 6.42676 9.19773 6.42676C8.85081 6.42676 8.56958 6.70799 8.56958 7.05491C8.56958 7.40182 8.85081 7.68306 9.19773 7.68306Z" fill="#1A162E"/>
<path d="M10.5732 9.05836C10.4489 9.05836 10.3274 9.02148 10.2241 8.95239C10.1207 8.8833 10.0402 8.7851 9.99273 8.67023C9.94524 8.55536 9.93289 8.42898 9.95725 8.30709C9.98162 8.1852 10.0416 8.07327 10.1296 7.98549C10.2176 7.8977 10.3297 7.838 10.4516 7.81394C10.5736 7.78988 10.6999 7.80255 10.8147 7.85033C10.9294 7.89811 11.0274 7.97887 11.0963 8.08238C11.1651 8.18588 11.2017 8.30748 11.2014 8.43178C11.2009 8.59811 11.1346 8.75747 11.0168 8.87494C10.8991 8.9924 10.7395 9.05836 10.5732 9.05836Z" fill="#1A162E"/>
<path d="M10.5732 6.30799C10.9201 6.30799 11.2014 6.02676 11.2014 5.67985C11.2014 5.33293 10.9201 5.0517 10.5732 5.0517C10.2263 5.0517 9.94507 5.33293 9.94507 5.67985C9.94507 6.02676 10.2263 6.30799 10.5732 6.30799Z" fill="#1A162E"/>
<path d="M11.9482 7.68306C12.2951 7.68306 12.5764 7.40182 12.5764 7.05491C12.5764 6.70799 12.2951 6.42676 11.9482 6.42676C11.6013 6.42676 11.3201 6.70799 11.3201 7.05491C11.3201 7.40182 11.6013 7.68306 11.9482 7.68306Z" fill="#1A162E"/>
<path d="M5.06885 5.55145V8.55431" stroke="#1A162E" stroke-width="1.00189" stroke-linecap="round" stroke-linejoin="round"/>
<path d="M6.57171 7.05212H3.56885" stroke="#1A162E" stroke-width="1.00189" stroke-linecap="round" stroke-linejoin="round"/>
</g>
<defs>
<clipPath id="clip0_5_831">
<rect width="16.0035" height="16.0035" fill="white" transform="translate(0.0678711 0.0505981)"/>
</clipPath>
</defs>
</svg>
