<svg width="17" height="17" viewBox="0 0 17 17" fill="none" xmlns="http://www.w3.org/2000/svg">
<g clip-path="url(#clip0_5_789)">
<path d="M2.67627 6.75958V14.1362C2.67627 14.2688 2.72896 14.396 2.82275 14.4898C2.91654 14.5836 3.04374 14.6363 3.17638 14.6363H6.17703V10.3854C6.17703 10.1864 6.25607 9.99561 6.39675 9.85493C6.53743 9.71424 6.72824 9.63521 6.9272 9.63521H9.42774C9.6267 9.63521 9.8175 9.71424 9.95819 9.85493C10.0989 9.99561 10.1779 10.1864 10.1779 10.3854V14.6363H13.1786C13.3112 14.6363 13.4384 14.5836 13.5322 14.4898C13.626 14.396 13.6787 14.2688 13.6787 14.1362V6.75958" stroke="#1A162E" stroke-width="1.00189" stroke-linecap="round" stroke-linejoin="round"/>
<path d="M15.1796 8.1346L8.51842 1.75821C8.36214 1.59317 7.99675 1.5913 7.83765 1.75821L1.17651 8.1346" stroke="#1A162E" stroke-width="1.00189" stroke-linecap="round" stroke-linejoin="round"/>
<path d="M12.6794 5.72942V2.13342H11.1785V4.29102" stroke="#1A162E" stroke-width="1.00189" stroke-linecap="round" stroke-linejoin="round"/>
</g>
<defs>
<clipPath id="clip0_5_789">
<rect width="16.0035" height="16.0035" fill="white" transform="translate(0.176514 0.133423)"/>
</clipPath>
</defs>
</svg>
