<svg width="17" height="17" viewBox="0 0 17 17" fill="none" xmlns="http://www.w3.org/2000/svg">
<path d="M7.12465 5.81801C6.7399 5.43326 6.11614 5.43321 5.73145 5.8179C5.34676 6.20259 5.34681 6.82634 5.73156 7.21109L12.6972 14.1767C13.0819 14.5615 13.7057 14.5615 14.0904 14.1768C14.4751 13.7922 14.475 13.1684 14.0903 12.7836L7.12465 5.81801Z" stroke="#1A162E" stroke-width="1.00189" stroke-miterlimit="10"/>
<path d="M5.73589 5.82095C5.644 5.91283 5.57111 6.0219 5.52137 6.14195C5.47164 6.262 5.44604 6.39067 5.44604 6.52061C5.44604 6.65055 5.47164 6.77922 5.52137 6.89927C5.57111 7.01931 5.644 7.12839 5.73589 7.22026L7.13896 8.62333L8.53827 7.22402L7.1352 5.82095C7.04333 5.72906 6.93425 5.65617 6.81421 5.60643C6.69416 5.5567 6.56549 5.53111 6.43555 5.53111C6.30561 5.53111 6.17694 5.5567 6.05689 5.60643C5.93684 5.65617 5.82777 5.72906 5.73589 5.82095Z" fill="#1A162E"/>
<path d="M1.6604 6.24628H3.16796" stroke="#1A162E" stroke-width="1.00189" stroke-miterlimit="10" stroke-linecap="round"/>
<path d="M2.97827 3.06372L4.04623 4.13168" stroke="#1A162E" stroke-width="1.00189" stroke-miterlimit="10" stroke-linecap="round"/>
<path d="M6.16113 1.74564V3.2532" stroke="#1A162E" stroke-width="1.00189" stroke-miterlimit="10" stroke-linecap="round"/>
<path d="M9.35068 3.06371L8.28271 4.13167" stroke="#1A162E" stroke-width="1.00189" stroke-miterlimit="10" stroke-linecap="round"/>
<path d="M4.04599 8.36786L2.97803 9.43582" stroke="#1A162E" stroke-width="1.00189" stroke-miterlimit="10" stroke-linecap="round"/>
</svg>
