<svg width="17" height="17" viewBox="0 0 17 17" fill="none" xmlns="http://www.w3.org/2000/svg">
<path d="M10.0024 4.83141L6.42228 2.54091C6.27986 2.46977 6.12253 2.43365 5.96335 2.43556C5.80417 2.43746 5.64775 2.47733 5.50708 2.55185L1.97693 4.92049C1.89662 4.96304 1.82942 5.02667 1.78255 5.10454C1.73569 5.18241 1.71093 5.27158 1.71094 5.36246V14.6082C1.71093 14.6945 1.73323 14.7793 1.77566 14.8543C1.8181 14.9294 1.87923 14.9923 1.95313 15.0367C2.02702 15.0812 2.11116 15.1058 2.19737 15.1082C2.28359 15.1106 2.36895 15.0906 2.44516 15.0502L5.5027 13.0563C5.64452 12.9812 5.80234 12.9413 5.96282 12.94C6.12331 12.9387 6.28175 12.976 6.42478 13.0488L9.92116 15.3306C10.0629 15.4028 10.2199 15.4402 10.379 15.4396C10.5381 15.439 10.6948 15.4004 10.8361 15.3271L14.444 12.9535C14.5253 12.9113 14.5935 12.8476 14.641 12.7693C14.6886 12.6911 14.7138 12.6012 14.7138 12.5096V3.26638C14.7138 3.18013 14.6915 3.09535 14.649 3.02027C14.6066 2.94518 14.5455 2.88235 14.4716 2.83787C14.3977 2.79339 14.3136 2.76877 14.2273 2.76642C14.1411 2.76406 14.0558 2.78404 13.9795 2.82441L10.9164 4.82047C10.7759 4.89478 10.6197 4.93454 10.4607 4.93644C10.3018 4.93834 10.1447 4.90234 10.0024 4.83141Z" stroke="#1A162E" stroke-width="1.00189" stroke-linecap="round" stroke-linejoin="round"/>
<path d="M10.4631 4.93585V15.4381" stroke="#1A162E" stroke-width="1.00189" stroke-linecap="round" stroke-linejoin="round"/>
<path d="M5.96167 2.43604V12.9383" stroke="#1A162E" stroke-width="1.00189" stroke-linecap="round" stroke-linejoin="round"/>
</svg>
