<svg width="17" height="17" viewBox="0 0 17 17" fill="none" xmlns="http://www.w3.org/2000/svg">
<g clip-path="url(#clip0_5_874)">
<path d="M6.81401 7.08923V15.341C6.81288 15.4399 6.83151 15.5379 6.86881 15.6294C6.90611 15.721 6.96133 15.8041 7.03121 15.874C7.1011 15.9439 7.18424 15.9991 7.27577 16.0364C7.36729 16.0737 7.46535 16.0923 7.56418 16.0912V16.0912C7.663 16.0923 7.76106 16.0737 7.85258 16.0364C7.94411 15.9991 8.02726 15.9439 8.09714 15.874C8.16703 15.8041 8.22224 15.721 8.25954 15.6294C8.29684 15.5379 8.31547 15.4399 8.31434 15.341" stroke="#1A162E" stroke-width="1.00189" stroke-miterlimit="10" stroke-linecap="round"/>
<path d="M8.31475 11.0901V15.341C8.31361 15.4399 8.33225 15.5379 8.36954 15.6294C8.40684 15.721 8.46206 15.8041 8.53194 15.874C8.60183 15.9439 8.68498 15.9991 8.7765 16.0364C8.86803 16.0737 8.96608 16.0923 9.06491 16.0912C9.16374 16.0923 9.26179 16.0737 9.35332 16.0364C9.44484 15.9991 9.52799 15.9439 9.59788 15.874C9.66776 15.8041 9.72297 15.721 9.76027 15.6294C9.79757 15.5379 9.8162 15.4399 9.81507 15.341V7.08923" stroke="#1A162E" stroke-width="1.00189" stroke-miterlimit="10" stroke-linecap="round"/>
<path d="M6.81456 6.58892V9.33991C6.81573 9.43876 6.79713 9.53685 6.75984 9.62841C6.72255 9.71997 6.66733 9.80315 6.59742 9.87305C6.52752 9.94295 6.44434 9.99817 6.35279 10.0355C6.26123 10.0728 6.16314 10.0914 6.06429 10.0902V10.0902C5.96544 10.0914 5.86735 10.0728 5.77579 10.0355C5.68423 9.99817 5.60105 9.94295 5.53115 9.87305C5.46125 9.80315 5.40603 9.71997 5.36874 9.62841C5.33145 9.53685 5.31284 9.43876 5.31402 9.33991V6.58892C5.31402 6.19095 5.47211 5.80928 5.75352 5.52788C6.03492 5.24647 6.41659 5.08838 6.81456 5.08838H9.81564C10.2136 5.08838 10.5953 5.24647 10.8767 5.52788C11.1581 5.80928 11.3162 6.19095 11.3162 6.58892V9.33991C11.3174 9.43876 11.2988 9.53685 11.2615 9.62841C11.2242 9.71997 11.169 9.80315 11.099 9.87305C11.0291 9.94295 10.946 9.99817 10.8544 10.0355C10.7629 10.0728 10.6648 10.0914 10.5659 10.0902V10.0902C10.4671 10.0914 10.369 10.0728 10.2774 10.0355C10.1859 9.99817 10.1027 9.94295 10.0328 9.87305C9.96287 9.80315 9.90765 9.71997 9.87036 9.62841C9.83307 9.53685 9.81447 9.43876 9.81564 9.33991V6.58892" stroke="#1A162E" stroke-width="1.00189" stroke-miterlimit="10" stroke-linecap="round"/>
<path d="M8.31565 3.59027C9.00666 3.59027 9.56684 3.0301 9.56684 2.33908C9.56684 1.64807 9.00666 1.08789 8.31565 1.08789C7.62463 1.08789 7.06445 1.64807 7.06445 2.33908C7.06445 3.0301 7.62463 3.59027 8.31565 3.59027Z" stroke="#1A162E" stroke-width="1.00189" stroke-miterlimit="10" stroke-linecap="round"/>
</g>
<defs>
<clipPath id="clip0_5_874">
<rect width="16.0035" height="16.0035" fill="white" transform="translate(0.313232 0.587097)"/>
</clipPath>
</defs>
</svg>
