<svg width="17" height="17" viewBox="0 0 17 17" fill="none" xmlns="http://www.w3.org/2000/svg">
<path d="M6.16113 7.53337V7.34582C6.16113 6.88197 6.4737 6.50189 6.9188 6.38968L12.3759 4.93061C12.4684 4.90586 12.5653 4.90269 12.6592 4.92133C12.7532 4.93997 12.8415 4.97993 12.9175 5.03813C12.9936 5.09633 13.0552 5.17121 13.0977 5.257C13.1402 5.34279 13.1624 5.43719 13.1627 5.53293V6.22058" stroke="#1A162E" stroke-width="1.00189" stroke-linecap="round" stroke-linejoin="round"/>
<path d="M13.1621 9.96926V12.4698C13.1621 12.9046 12.883 13.2697 12.4744 13.4075L11.7868 13.6576C10.9772 13.9301 10.1614 13.3319 10.1614 12.4698C10.1596 12.2484 10.2282 12.0321 10.3575 11.8522C10.4867 11.6724 10.6699 11.5384 10.8803 11.4696L12.4744 10.9023C12.883 10.7647 13.1621 10.404 13.1621 9.96926ZM13.1621 9.96926V2.53201C13.1619 2.48416 13.1507 2.437 13.1293 2.39416C13.108 2.35132 13.0771 2.31394 13.0391 2.28492C13.001 2.2559 12.9568 2.236 12.9099 2.22677C12.8629 2.21753 12.8145 2.21919 12.7683 2.23164L6.53565 3.90731C6.42694 3.93802 6.33134 4.0036 6.26357 4.09397C6.19579 4.18433 6.1596 4.29447 6.16057 4.40742V11.4715C6.16057 11.9062 5.88144 12.2716 5.47292 12.4092L3.84756 12.9718C3.41372 13.1181 3.15991 13.51 3.15991 13.972C3.15991 14.8341 3.98884 15.427 4.78527 15.1598L5.47292 14.9097C5.88144 14.7722 6.16057 14.4071 6.16057 13.972V11.4715" stroke="#1A162E" stroke-width="1.00189" stroke-linecap="round" stroke-linejoin="round"/>
</svg>
