<svg width="17" height="17" viewBox="0 0 17 17" fill="none" xmlns="http://www.w3.org/2000/svg">
<g clip-path="url(#clip0_5_600)">
<path d="M3.78446 10.3281C3.88893 10.3119 3.98563 10.2632 4.06077 10.1888C4.13592 10.1144 4.18569 10.0183 4.20299 9.91396C4.58089 7.61877 6.25438 6.23816 8.20386 6.23816C10.0146 6.23816 11.2239 7.4181 11.7109 8.66806C11.7422 8.74818 11.7938 8.81876 11.8607 8.87286C11.9275 8.92695 12.0073 8.9627 12.0922 8.97657C13.6551 9.23131 14.9553 10.275 14.9553 12.0894C14.9553 13.9461 13.4363 15.2401 11.5796 15.2401H4.26551C2.71829 15.2401 1.45239 14.4681 1.45239 12.7646C1.45239 11.2496 2.66109 10.5072 3.78446 10.3281Z" stroke="#1A162E" stroke-width="1.00189" stroke-linejoin="round"/>
<path d="M12.9805 9.22112C13.2863 8.9853 13.5333 8.68189 13.7022 8.33464C13.8711 7.9874 13.9572 7.60577 13.954 7.21964C13.9507 6.83352 13.8581 6.4534 13.6834 6.10906C13.5086 5.76472 13.2565 5.46552 12.9468 5.2349C12.6371 5.00428 12.2782 4.84851 11.8982 4.77979C11.5183 4.71107 11.1275 4.73127 10.7567 4.83881C10.3858 4.94635 10.0449 5.1383 9.76063 5.39963C9.47635 5.66096 9.25646 5.98456 9.11816 6.34508" stroke="#1A162E" stroke-width="1.00189" stroke-linecap="round" stroke-linejoin="round"/>
<path d="M15.4558 7.23853H16.465" stroke="#1A162E" stroke-width="1.00189" stroke-linecap="round" stroke-linejoin="round"/>
<path d="M11.4551 2.23743V3.24664" stroke="#1A162E" stroke-width="1.00189" stroke-linecap="round" stroke-linejoin="round"/>
<path d="M7.91895 3.70276L8.63276 4.41658" stroke="#1A162E" stroke-width="1.00189" stroke-linecap="round" stroke-linejoin="round"/>
<path d="M14.998 3.70276L14.2842 4.41658" stroke="#1A162E" stroke-width="1.00189" stroke-linecap="round" stroke-linejoin="round"/>
</g>
<defs>
<clipPath id="clip0_5_600">
<rect width="16.0035" height="16.0035" fill="white" transform="translate(0.953125 0.736694)"/>
</clipPath>
</defs>
</svg>
