<svg width="17" height="17" viewBox="0 0 17 17" fill="none" xmlns="http://www.w3.org/2000/svg">
<path d="M14.8881 1.74488C14.8828 1.71922 14.8702 1.69562 14.852 1.67685C14.8337 1.65808 14.8104 1.64492 14.7849 1.63892C13.0852 1.2232 9.1587 2.70446 7.02918 4.83242C6.64965 5.20884 6.30358 5.61755 5.99489 6.05394C5.3385 5.99455 4.6821 6.04456 4.12323 6.28836C2.54508 6.98227 2.08591 8.79454 1.95776 9.57252C1.95082 9.61515 1.95378 9.6588 1.96643 9.7001C1.97907 9.7414 2.00106 9.77923 2.03068 9.81066C2.0603 9.8421 2.09676 9.86629 2.13723 9.88136C2.17771 9.89644 2.22111 9.90199 2.26408 9.89759L4.79807 9.6194C4.79982 9.81053 4.8113 10.0014 4.83245 10.1914C4.84567 10.3227 4.90425 10.4453 4.99811 10.538L5.97926 11.5192C6.0721 11.6131 6.1948 11.6717 6.32621 11.6849C6.51503 11.7059 6.70479 11.7174 6.89477 11.7192L6.6169 14.251C6.61256 14.2939 6.61815 14.3373 6.63323 14.3777C6.64831 14.4181 6.67248 14.4545 6.70387 14.4841C6.73526 14.5136 6.77303 14.5356 6.81426 14.5483C6.85549 14.5609 6.89908 14.5639 6.94166 14.557C7.71995 14.432 9.53597 13.9729 10.2258 12.395C10.4696 11.8355 10.5196 11.1826 10.4634 10.5293C10.901 10.2209 11.3109 9.8748 11.6883 9.495C13.8257 7.36954 15.2975 3.52933 14.8881 1.74488ZM9.78853 6.74159C9.60184 6.55494 9.4747 6.31713 9.42317 6.05822C9.37165 5.79931 9.39806 5.53094 9.49907 5.28705C9.60008 5.04315 9.77115 4.83469 9.99064 4.68802C10.2101 4.54135 10.4682 4.46306 10.7322 4.46306C10.9962 4.46306 11.2542 4.54135 11.4737 4.68802C11.6932 4.83469 11.8643 5.04315 11.9653 5.28705C12.0663 5.53094 12.0927 5.79931 12.0412 6.05822C11.9896 6.31713 11.8625 6.55494 11.6758 6.74159C11.552 6.86568 11.4049 6.96413 11.243 7.0313C11.0811 7.09847 10.9075 7.13304 10.7322 7.13304C10.5569 7.13304 10.3833 7.09847 10.2214 7.0313C10.0594 6.96413 9.91235 6.86568 9.78853 6.74159V6.74159Z" stroke="#1A162E" stroke-width="1.00189" stroke-linecap="round" stroke-linejoin="round"/>
<path d="M3.88147 11.0658C3.56964 11.1041 3.27955 11.2454 3.05724 11.4674C2.50609 12.0205 2.45386 14.0687 2.45386 14.0687C2.45386 14.0687 4.50331 14.0164 5.05477 13.4646C5.27766 13.2427 5.41926 12.9521 5.45672 12.6398" stroke="#1A162E" stroke-width="1.00189" stroke-linecap="round" stroke-linejoin="round"/>
</svg>
