<svg width="17" height="17" viewBox="0 0 17 17" fill="none" xmlns="http://www.w3.org/2000/svg">
<g clip-path="url(#clip0_5_471)">
<path d="M13.5038 4.06348C12.913 4.19632 12.3535 4.34291 11.8253 4.49951C10.5594 4.87459 9.4654 5.34813 8.53082 5.80136C7.92757 6.09423 7.71189 6.22363 6.9211 6.68374C5.0957 7.73678 4.00171 9.10301 4.00171 11.1475C4.00171 13.4577 5.73959 15.0659 8.50269 15.0659C11.2658 15.0659 13.0037 13.3214 13.0037 11.0112C13.0037 8.70105 11.097 7.10289 13.5038 4.06348Z" stroke="#1A162E" stroke-width="1.00189" stroke-linecap="round" stroke-linejoin="round"/>
<path d="M8.75287 5.69439C8.13734 4.85033 7.55869 4.48489 7.1054 4.23792C5.58298 3.4095 3.50098 3.0625 3.50098 3.0625C4.79832 4.42862 4.6639 5.87914 4.50134 7.06394C4.50134 7.06394 4.38036 8.09181 4.56105 8.88991" stroke="#1A162E" stroke-width="1.00189" stroke-linecap="round" stroke-linejoin="round"/>
<path d="M12.1285 4.41276C11.6455 3.27016 11.0031 2.06348 11.0031 2.06348C11.0031 2.06348 9.02361 2.06348 6.76123 4.0642" stroke="#1A162E" stroke-width="1.00189" stroke-linecap="round" stroke-linejoin="round"/>
<path d="M8.42573 2.801C7.41791 1.49519 6.00297 1.06335 6.00297 1.06335C5.52454 1.71376 5.10272 2.67624 4.9126 3.38262" stroke="#1A162E" stroke-width="1.00189" stroke-linecap="round" stroke-linejoin="round"/>
</g>
<defs>
<clipPath id="clip0_5_471">
<rect width="16.0035" height="16.0035" fill="white" transform="translate(0.501465 0.0629883)"/>
</clipPath>
</defs>
</svg>
