<svg width="17" height="17" viewBox="0 0 17 17" fill="none" xmlns="http://www.w3.org/2000/svg">
<path d="M8.50242 6.76693C8.09198 6.7264 7.67904 6.81372 7.32015 7.01693C6.96125 7.22015 6.67394 7.52933 6.49755 7.90215C6.32116 8.27496 6.26432 8.69318 6.3348 9.09955C6.40529 9.50592 6.59965 9.88057 6.89129 10.1722C7.18292 10.4638 7.55757 10.6582 7.96394 10.7287C8.37031 10.7992 8.78853 10.7423 9.16135 10.5659C9.53416 10.3896 9.84334 10.1022 10.0466 9.74335C10.2498 9.38445 10.3371 8.97151 10.2966 8.56108C10.2503 8.10097 10.0465 7.67099 9.71949 7.344C9.39251 7.01702 8.96253 6.81315 8.50242 6.76693V6.76693ZM13.3191 8.75768C13.3178 8.97512 13.3018 9.19223 13.2713 9.40751L14.6844 10.5159C14.7459 10.5669 14.7874 10.6381 14.8014 10.7167C14.8154 10.7954 14.8011 10.8765 14.761 10.9457L13.4241 13.2587C13.3835 13.3271 13.3201 13.379 13.2449 13.4053C13.1698 13.4315 13.0878 13.4304 13.0134 13.4021L11.61 12.837C11.5326 12.8062 11.4487 12.7951 11.366 12.8046C11.2832 12.8142 11.2041 12.8441 11.1358 12.8917C10.9216 13.0392 10.6965 13.1702 10.4625 13.2837C10.389 13.3194 10.3253 13.3727 10.2772 13.4389C10.2292 13.5051 10.1981 13.5821 10.1868 13.6631L9.97649 15.16C9.96267 15.2391 9.92183 15.3109 9.86094 15.3631C9.80006 15.4154 9.7229 15.4449 9.64267 15.4466H6.96896C6.89005 15.4453 6.81396 15.4171 6.75322 15.3667C6.69249 15.3163 6.65073 15.2467 6.63483 15.1694L6.42478 13.6747C6.41298 13.5928 6.38113 13.515 6.33205 13.4484C6.28298 13.3818 6.2182 13.3283 6.14347 13.2927C5.90973 13.1799 5.68543 13.0485 5.4727 12.8998C5.40459 12.8524 5.32576 12.8227 5.24331 12.8134C5.16086 12.8041 5.07739 12.8154 5.00041 12.8464L3.59729 13.4112C3.52293 13.4395 3.44097 13.4407 3.36584 13.4145C3.2907 13.3883 3.22722 13.3364 3.18658 13.268L1.84972 10.955C1.80953 10.8859 1.79517 10.8048 1.80919 10.7261C1.82321 10.6474 1.86471 10.5762 1.9263 10.5253L3.12062 9.58755C3.18606 9.53561 3.23748 9.46815 3.27023 9.39129C3.30298 9.31444 3.31602 9.23062 3.30816 9.14745C3.29691 9.01711 3.29004 8.88708 3.29004 8.75674C3.29004 8.6264 3.2966 8.49825 3.30816 8.37072C3.31516 8.28806 3.30148 8.20495 3.26836 8.12889C3.23524 8.05282 3.18372 7.98619 3.11844 7.935L1.92474 6.9973C1.86415 6.94607 1.82352 6.87515 1.80998 6.79697C1.79644 6.71879 1.81084 6.63833 1.85066 6.5697L3.18751 4.2567C3.22811 4.18825 3.29157 4.13632 3.36671 4.11007C3.44184 4.08383 3.52384 4.08494 3.59823 4.11323L5.00166 4.67836C5.07905 4.70917 5.16288 4.7203 5.24563 4.71076C5.32839 4.70121 5.40748 4.67128 5.47582 4.62366C5.69001 4.47616 5.91508 4.34513 6.1491 4.2317C6.22267 4.19594 6.2863 4.14262 6.33438 4.07644C6.38246 4.01026 6.41351 3.93326 6.42478 3.85224L6.63514 2.35535C6.64895 2.2763 6.6898 2.20449 6.75068 2.15221C6.81157 2.09994 6.88873 2.07042 6.96896 2.06873H9.64267C9.72158 2.07009 9.79767 2.09829 9.85841 2.14869C9.91914 2.19909 9.9609 2.26867 9.9768 2.34597L10.1868 3.84067C10.1986 3.92259 10.2305 4.00032 10.2796 4.06695C10.3287 4.13359 10.3934 4.18707 10.4682 4.22263C10.7019 4.33545 10.9262 4.46684 11.1389 4.61553C11.207 4.66292 11.2859 4.69262 11.3683 4.70195C11.4508 4.71128 11.5342 4.69995 11.6112 4.66898L13.0143 4.10417C13.0887 4.07585 13.1707 4.07469 13.2458 4.10087C13.3209 4.12706 13.3844 4.17892 13.4251 4.24732L14.7619 6.56033C14.8021 6.62943 14.8165 6.71056 14.8024 6.78926C14.7884 6.86797 14.7469 6.93914 14.6853 6.99011L13.491 7.92781C13.4253 7.97958 13.3736 8.04697 13.3405 8.12383C13.3075 8.2007 13.2942 8.2846 13.3019 8.36791C13.3122 8.49731 13.3191 8.62734 13.3191 8.75768Z" stroke="#1A162E" stroke-width="1.00189" stroke-linecap="round" stroke-linejoin="round"/>
</svg>
