<svg width="17" height="17" viewBox="0 0 17 17" fill="none" xmlns="http://www.w3.org/2000/svg">
<g clip-path="url(#clip0_5_434)">
<path d="M10.4393 2.25488C10.4393 2.25488 9.72731 2.50494 8.60895 2.50494C7.49058 2.50494 6.77855 2.25488 6.77855 2.25488C6.66604 2.25489 6.55433 2.27391 6.44816 2.31115L1.60742 4.00526L2.12722 6.75586L3.65506 6.9284C3.84216 6.94958 4.01445 7.04034 4.13773 7.18267C4.26101 7.325 4.32626 7.50848 4.32051 7.69669L4.10797 15.2577H13.1099L12.8974 7.69669C12.8916 7.50848 12.9569 7.325 13.0802 7.18267C13.2034 7.04034 13.3757 6.94958 13.5628 6.9284L15.0907 6.75586L15.6105 4.00526L10.7697 2.31115C10.6636 2.27391 10.5519 2.25489 10.4393 2.25488V2.25488Z" stroke="#1A162E" stroke-width="1.00189" stroke-linecap="round" stroke-linejoin="round"/>
<path d="M11.0265 2.40027C10.8847 2.93301 10.5709 3.40399 10.1339 3.73997C9.69679 4.07595 9.16096 4.2581 8.60968 4.2581C8.0584 4.2581 7.52257 4.07595 7.0855 3.73997C6.64843 3.40399 6.33463 2.93301 6.19287 2.40027" stroke="#1A162E" stroke-width="1.00189" stroke-linecap="round" stroke-linejoin="round"/>
</g>
<defs>
<clipPath id="clip0_5_434">
<rect width="16.0035" height="16.0035" fill="white" transform="translate(0.607666 0.755615)"/>
</clipPath>
</defs>
</svg>
