<svg width="17" height="17" viewBox="0 0 17 17" fill="none" xmlns="http://www.w3.org/2000/svg">
<path d="M8.05306 14.0535C11.3675 14.0535 14.0544 11.3666 14.0544 8.05221C14.0544 4.73778 11.3675 2.0509 8.05306 2.0509C4.73863 2.0509 2.05176 4.73778 2.05176 8.05221C2.05176 11.3666 4.73863 14.0535 8.05306 14.0535Z" stroke="#1A162E" stroke-width="1.00189" stroke-miterlimit="10" stroke-linecap="round"/>
<path d="M8.05347 5.52539L5.6748 7.5208L6.30284 10.0536H8.05347H9.8041L10.4321 7.5208L8.05347 5.52539Z" stroke="#1A162E" stroke-width="1.00189" stroke-linecap="round" stroke-linejoin="round"/>
<path d="M10.4314 7.52232L12.0852 6.82165L12.8916 4.53009" stroke="#1A162E" stroke-width="1.00189" stroke-linecap="round" stroke-linejoin="round"/>
<path d="M14.0248 8.49034L12.0842 6.82031" stroke="#1A162E" stroke-width="1.00189" stroke-linecap="round" stroke-linejoin="round"/>
<path d="M5.67671 7.52244L4.02295 6.82177L3.21655 4.53021" stroke="#1A162E" stroke-width="1.00189" stroke-linecap="round" stroke-linejoin="round"/>
<path d="M2.08301 8.49034L4.02361 6.82031" stroke="#1A162E" stroke-width="1.00189" stroke-linecap="round" stroke-linejoin="round"/>
<path d="M8.05273 5.52622V3.72603L10.054 2.3927" stroke="#1A162E" stroke-width="1.00189" stroke-linecap="round" stroke-linejoin="round"/>
<path d="M6.05249 2.39252L8.0544 3.7266" stroke="#1A162E" stroke-width="1.00189" stroke-linecap="round" stroke-linejoin="round"/>
<path d="M9.80347 10.0527L10.679 11.5537L9.80347 13.7738" stroke="#1A162E" stroke-width="1.00189" stroke-linecap="round" stroke-linejoin="round"/>
<path d="M12.8916 11.5533H10.7415" stroke="#1A162E" stroke-width="1.00189" stroke-linecap="round" stroke-linejoin="round"/>
<path d="M6.30328 10.0527L5.42773 11.5537L6.31485 13.7894" stroke="#1A162E" stroke-width="1.00189" stroke-linecap="round" stroke-linejoin="round"/>
<path d="M3.22778 11.5533H5.42894" stroke="#1A162E" stroke-width="1.00189" stroke-linecap="round" stroke-linejoin="round"/>
</svg>
