<svg width="17" height="17" viewBox="0 0 17 17" fill="none" xmlns="http://www.w3.org/2000/svg">
<g clip-path="url(#clip0_5_1004)">
<path d="M8.65673 9.1243L7.29643 5.58791C7.27602 5.53484 7.24001 5.4892 7.19313 5.45701C7.14626 5.42482 7.09074 5.40759 7.03388 5.40759C6.97702 5.40759 6.92149 5.42482 6.87462 5.45701C6.82775 5.4892 6.79173 5.53484 6.77132 5.58791L5.41102 9.1243C5.3969 9.16105 5.37521 9.19442 5.34737 9.22225C5.31954 9.25009 5.28617 9.27177 5.24943 9.2859L1.71303 10.6462C1.65996 10.6666 1.61433 10.7026 1.58214 10.7495C1.54995 10.7964 1.53271 10.8519 1.53271 10.9088C1.53271 10.9656 1.54995 11.0211 1.58214 11.068C1.61433 11.1149 1.65996 11.1509 1.71303 11.1713L5.24943 12.5316C5.28617 12.5457 5.31954 12.5674 5.34737 12.5953C5.37521 12.6231 5.3969 12.6565 5.41102 12.6932L6.77132 16.2296C6.79173 16.2827 6.82775 16.3283 6.87462 16.3605C6.92149 16.3927 6.97702 16.4099 7.03388 16.4099C7.09074 16.4099 7.14626 16.3927 7.19313 16.3605C7.24001 16.3283 7.27602 16.2827 7.29643 16.2296L8.65673 12.6932C8.67086 12.6565 8.69254 12.6231 8.72038 12.5953C8.74822 12.5674 8.78159 12.5457 8.81833 12.5316L12.3547 11.1713C12.4078 11.1509 12.4534 11.1149 12.4856 11.068C12.5178 11.0211 12.535 10.9656 12.535 10.9088C12.535 10.8519 12.5178 10.7964 12.4856 10.7495C12.4534 10.7026 12.4078 10.6666 12.3547 10.6462L8.81833 9.2859C8.78159 9.27177 8.74822 9.25009 8.72038 9.22225C8.69254 9.19442 8.67086 9.16105 8.65673 9.1243Z" stroke="#1A162E" stroke-width="1.00189" stroke-linecap="round" stroke-linejoin="round"/>
<path d="M3.90851 3.03281L3.28328 1.40723L2.65806 3.03281L1.03247 3.65804L2.65806 4.28326L3.28328 5.90885L3.90851 4.28326L5.53409 3.65804L3.90851 3.03281Z" stroke="#1A162E" stroke-width="1.00189" stroke-linecap="round" stroke-linejoin="round"/>
<path d="M13.8688 4.57494L13.035 2.40759L12.2013 4.57494L10.0339 5.40867L12.2013 6.24241L13.035 8.40975L13.8688 6.24241L16.0361 5.40867L13.8688 4.57494Z" stroke="#1A162E" stroke-width="1.00189" stroke-linecap="round" stroke-linejoin="round"/>
</g>
<defs>
<clipPath id="clip0_5_1004">
<rect width="16.0035" height="16.0035" fill="white" transform="translate(0.532227 0.907227)"/>
</clipPath>
</defs>
</svg>
