<svg width="17" height="17" viewBox="0 0 17 17" fill="none" xmlns="http://www.w3.org/2000/svg">
<path d="M7.01758 7.32243C7.01758 7.05696 7.12304 6.80236 7.31075 6.61464C7.49847 6.42693 7.75306 6.32147 8.01853 6.32147C8.284 6.32147 8.5386 6.42693 8.72631 6.61464C8.91403 6.80236 9.01948 7.05696 9.01948 7.32243" stroke="#1A162E" stroke-width="1.00189" stroke-linecap="round" stroke-linejoin="round"/>
<path d="M14.019 6.32147H14.5243" stroke="#1A162E" stroke-width="1.00189" stroke-linecap="round" stroke-linejoin="round"/>
<path d="M2.02134 6.32147H1.51611" stroke="#1A162E" stroke-width="1.00189" stroke-linecap="round" stroke-linejoin="round"/>
<path d="M2.01685 6.32135C2.01685 9.32243 2.51703 10.3228 4.51775 10.3228C6.51847 10.3228 7.01865 9.32243 7.01865 6.32135C7.01865 6.32135 6.51847 5.82117 4.51775 5.82117C2.51703 5.82117 2.01685 6.32135 2.01685 6.32135Z" stroke="#1A162E" stroke-width="1.00189" stroke-linecap="round" stroke-linejoin="round"/>
<path d="M14.0199 6.32135C14.0199 9.32243 13.5197 10.3228 11.519 10.3228C9.51825 10.3228 9.01807 9.32243 9.01807 6.32135C9.01807 6.32135 9.51825 5.82117 11.519 5.82117C13.5197 5.82117 14.0199 6.32135 14.0199 6.32135Z" stroke="#1A162E" stroke-width="1.00189" stroke-linecap="round" stroke-linejoin="round"/>
</svg>
