<svg width="17" height="17" viewBox="0 0 17 17" fill="none" xmlns="http://www.w3.org/2000/svg">
<g clip-path="url(#clip0_5_382)">
<path d="M9.92261 10.1126C9.88703 10.09 9.85771 10.0589 9.83739 10.022C9.81706 9.98512 9.80638 9.9437 9.80633 9.90159V3.16512C9.80633 2.76721 9.64826 2.3856 9.3669 2.10423C9.08553 1.82286 8.70392 1.66479 8.306 1.66479C7.90809 1.66479 7.52648 1.82286 7.24511 2.10423C6.96375 2.3856 6.80568 2.76721 6.80568 3.16512V9.90159C6.80561 9.94362 6.79495 9.98496 6.77468 10.0218C6.75442 10.0586 6.72519 10.0897 6.68971 10.1123C6.24531 10.4017 5.88414 10.8022 5.6419 11.274C5.39966 11.7458 5.28473 12.2727 5.30848 12.8025C5.34424 13.5855 5.68497 14.3235 6.2578 14.8585C6.83063 15.3935 7.59007 15.6832 8.37369 15.6655C9.15732 15.6478 9.90293 15.3242 10.451 14.7639C10.9991 14.2036 11.3062 13.451 11.3067 12.6672C11.3069 12.1598 11.1804 11.6604 10.9387 11.2143C10.697 10.7682 10.3477 10.3895 9.92261 10.1126V10.1126Z" stroke="#1A162E" stroke-width="1.00189" stroke-miterlimit="10" stroke-linecap="round"/>
<path d="M8.30615 4.16577V12.6676" stroke="#1A162E" stroke-width="1.00189" stroke-miterlimit="10" stroke-linecap="round"/>
<path d="M8.30709 14.1686C9.13631 14.1686 9.80852 13.4964 9.80852 12.6672C9.80852 11.838 9.13631 11.1658 8.30709 11.1658C7.47788 11.1658 6.80566 11.838 6.80566 12.6672C6.80566 13.4964 7.47788 14.1686 8.30709 14.1686Z" fill="#1A162E"/>
</g>
<defs>
<clipPath id="clip0_5_382">
<rect width="16.0035" height="16.0035" fill="white" transform="translate(0.304688 0.66333)"/>
</clipPath>
</defs>
</svg>
