<svg width="17" height="17" viewBox="0 0 17 17" fill="none" xmlns="http://www.w3.org/2000/svg">
<g clip-path="url(#clip0_5_375)">
<path d="M11.6713 5.37793C11.4112 5.11782 11.259 4.76913 11.245 4.4016C11.2309 4.03407 11.3562 3.6748 11.5956 3.39563C11.6154 3.37241 11.6257 3.34256 11.6245 3.31207C11.6232 3.28158 11.6104 3.2527 11.5888 3.23122L10.2094 1.85029C10.1866 1.8275 10.1557 1.8147 10.1234 1.8147C10.0912 1.8147 10.0603 1.8275 10.0375 1.85029L7.83888 4.04889C7.75776 4.12999 7.69665 4.22888 7.6604 4.33771V4.33771C7.62429 4.44679 7.56326 4.54595 7.48214 4.62733C7.40103 4.70872 7.30207 4.77008 7.19311 4.80656V4.80656C7.08421 4.84285 6.98523 4.90394 6.90399 4.98503L1.26557 10.6222C1.24278 10.645 1.22998 10.6759 1.22998 10.7082C1.22998 10.7404 1.24278 10.7713 1.26557 10.7941L2.64494 12.1735C2.66642 12.1951 2.6953 12.2079 2.72579 12.2092C2.75628 12.2105 2.78613 12.2002 2.80935 12.1804C3.08846 11.9406 3.44781 11.8152 3.81547 11.8291C4.18312 11.8431 4.53195 11.9954 4.79211 12.2555C5.05226 12.5157 5.20456 12.8645 5.2185 13.2322C5.23244 13.5998 5.107 13.9592 4.86729 14.2383C4.84749 14.2615 4.83719 14.2914 4.83847 14.3219C4.83974 14.3523 4.8525 14.3812 4.87417 14.4027L6.25353 15.7821C6.27633 15.8049 6.30725 15.8177 6.33949 15.8177C6.37173 15.8177 6.40265 15.8049 6.42545 15.7821L12.0642 10.1437C12.1453 10.0624 12.2064 9.96343 12.2426 9.85453V9.85453C12.2788 9.74545 12.3398 9.64629 12.4209 9.5649C12.502 9.48352 12.601 9.42216 12.7099 9.38568V9.38568C12.8188 9.34943 12.9177 9.28832 12.9988 9.2072L15.1974 7.0086C15.2201 6.9858 15.2329 6.95488 15.2329 6.92264C15.2329 6.89041 15.2201 6.85949 15.1974 6.83669L13.818 5.45732C13.7965 5.43565 13.7676 5.4229 13.7371 5.42162C13.7066 5.42035 13.6768 5.43064 13.6536 5.45045C13.3748 5.6903 13.0157 5.81609 12.6482 5.80264C12.2807 5.7892 11.9318 5.63752 11.6713 5.37793V5.37793Z" stroke="#1A162E" stroke-width="1.00189" stroke-miterlimit="10"/>
<path d="M8.06456 5.21007L7.54272 4.68823" stroke="#1A162E" stroke-width="1.00189" stroke-miterlimit="10" stroke-linecap="round"/>
<path d="M9.44221 6.58667L9.09106 6.23584" stroke="#1A162E" stroke-width="1.00189" stroke-miterlimit="10" stroke-linecap="round"/>
<path d="M10.8181 7.96321L10.4673 7.61206" stroke="#1A162E" stroke-width="1.00189" stroke-miterlimit="10" stroke-linecap="round"/>
<path d="M12.3651 9.50914L11.8433 8.9873" stroke="#1A162E" stroke-width="1.00189" stroke-miterlimit="10" stroke-linecap="round"/>
</g>
<defs>
<clipPath id="clip0_5_375">
<rect width="16.0035" height="16.0035" fill="white" transform="translate(0.229004 0.814697)"/>
</clipPath>
</defs>
</svg>
