<svg width="17" height="17" viewBox="0 0 17 17" fill="none" xmlns="http://www.w3.org/2000/svg">
<g clip-path="url(#clip0_5_365)">
<path d="M8.53296 13.166V15.1679" stroke="#1A162E" stroke-width="1.00189" stroke-linecap="round" stroke-linejoin="round"/>
<path d="M8.53296 7.16504V9.16695" stroke="#1A162E" stroke-width="1.00189" stroke-linecap="round" stroke-linejoin="round"/>
<path d="M8.53296 2.16357V3.17279" stroke="#1A162E" stroke-width="1.00189" stroke-linecap="round" stroke-linejoin="round"/>
<path d="M13.5346 7.16493H3.73965C3.67393 7.16494 3.60886 7.152 3.54815 7.12685C3.48744 7.1017 3.43228 7.06482 3.38582 7.01834L1.53198 5.1645L3.38582 3.31066C3.43228 3.26417 3.48744 3.2273 3.54815 3.20215C3.60886 3.17699 3.67393 3.16405 3.73965 3.16406H13.5346C13.6672 3.16406 13.7944 3.21675 13.8882 3.31054C13.982 3.40433 14.0347 3.53153 14.0347 3.66417V6.66482C14.0347 6.79746 13.982 6.92467 13.8882 7.01845C13.7944 7.11224 13.6672 7.16493 13.5346 7.16493Z" stroke="#1A162E" stroke-width="1.00189" stroke-linecap="round" stroke-linejoin="round"/>
<path d="M3.53185 13.1666H13.3268C13.3925 13.1667 13.4576 13.1537 13.5183 13.1286C13.579 13.1034 13.6342 13.0665 13.6806 13.02L15.5345 11.1662L13.6806 9.31237C13.6342 9.26588 13.579 9.22901 13.5183 9.20386C13.4576 9.1787 13.3925 9.16576 13.3268 9.16577H3.53185C3.39921 9.16577 3.27201 9.21846 3.17822 9.31225C3.08443 9.40604 3.03174 9.53324 3.03174 9.66588V12.6665C3.03174 12.7992 3.08443 12.9264 3.17822 13.0202C3.27201 13.114 3.39921 13.1666 3.53185 13.1666Z" stroke="#1A162E" stroke-width="1.00189" stroke-linecap="round" stroke-linejoin="round"/>
</g>
<defs>
<clipPath id="clip0_5_365">
<rect width="16.0035" height="16.0035" fill="white" transform="translate(0.531982 0.66333)"/>
</clipPath>
</defs>
</svg>
