<svg width="17" height="17" viewBox="0 0 17 17" fill="none" xmlns="http://www.w3.org/2000/svg">
<path d="M8.23168 9.47021V14.472C8.23168 14.7373 8.12628 14.9918 7.93868 15.1794C7.75107 15.367 7.49663 15.4724 7.23132 15.4724C6.96601 15.4724 6.71156 15.367 6.52396 15.1794C6.33635 14.9918 6.23096 14.7373 6.23096 14.472" stroke="#1A162E" stroke-width="1.00189" stroke-linecap="round" stroke-linejoin="round"/>
<path d="M14.7331 9.46968C14.7331 5.8789 11.8224 2.96826 8.23164 2.96826C4.64086 2.96826 1.73022 5.8789 1.73022 9.46968C1.92725 9.27264 2.16115 9.11635 2.41857 9.00971C2.676 8.90308 2.95191 8.84819 3.23055 8.84819C3.50919 8.84819 3.7851 8.90308 4.04253 9.00971C4.29996 9.11635 4.53386 9.27264 4.73088 9.46968C5.14734 9.0533 5.7 8.8011 6.28742 8.75935C6.87484 8.71761 7.45761 8.88914 7.92876 9.24244L8.23164 9.46968L8.53452 9.24244C9.00567 8.88914 9.58844 8.71761 10.1759 8.75935C10.7633 8.8011 11.3159 9.0533 11.7324 9.46968V9.46968C11.9294 9.27264 12.1633 9.11635 12.4208 9.00971C12.6782 8.90308 12.9541 8.84819 13.2327 8.84819C13.5114 8.84819 13.7873 8.90308 14.0447 9.00971C14.3021 9.11635 14.536 9.27264 14.7331 9.46968V9.46968Z" stroke="#1A162E" stroke-width="1.00189" stroke-linecap="round" stroke-linejoin="round"/>
<path d="M8.23145 2.97324V2.46802" stroke="#1A162E" stroke-width="1.00189" stroke-linecap="round" stroke-linejoin="round"/>
</svg>
