<svg width="17" height="17" viewBox="0 0 17 17" fill="none" xmlns="http://www.w3.org/2000/svg">
<g clip-path="url(#clip0_5_841)">
<path d="M7.18511 12.4102V15.6613C7.18398 15.7602 7.20261 15.8582 7.23991 15.9498C7.27722 16.0413 7.33244 16.1245 7.40234 16.1944C7.47223 16.2643 7.55539 16.3195 7.64693 16.3568C7.73847 16.3941 7.83654 16.4127 7.93538 16.4116V16.4116C8.03422 16.4127 8.13229 16.3941 8.22383 16.3568C8.31536 16.3195 8.39852 16.2643 8.46842 16.1944C8.53831 16.1245 8.59354 16.0413 8.63084 15.9498C8.66815 15.8582 8.68678 15.7602 8.68565 15.6613" stroke="#1A162E" stroke-width="1.00189" stroke-miterlimit="10" stroke-linecap="round"/>
<path d="M8.68511 12.4102V15.6613C8.68398 15.7602 8.70261 15.8582 8.73991 15.9498C8.77722 16.0413 8.83244 16.1245 8.90234 16.1944C8.97223 16.2643 9.05539 16.3195 9.14693 16.3568C9.23847 16.3941 9.33654 16.4127 9.43538 16.4116C9.53422 16.4127 9.63229 16.3941 9.72383 16.3568C9.81537 16.3195 9.89852 16.2643 9.96842 16.1944C10.0383 16.1245 10.0935 16.0413 10.1308 15.9498C10.1681 15.8582 10.1868 15.7602 10.1856 15.6613V12.4102" stroke="#1A162E" stroke-width="1.00189" stroke-miterlimit="10" stroke-linecap="round"/>
<path d="M6.40375 9.47232C6.37672 9.5674 6.33096 9.65611 6.26915 9.73325C6.20735 9.81039 6.13075 9.8744 6.04385 9.92152C5.95696 9.96863 5.86153 9.9979 5.76316 10.0076C5.66479 10.0173 5.56548 10.0073 5.47105 9.97805C5.37598 9.95103 5.28727 9.90526 5.21014 9.84345C5.13301 9.78164 5.06902 9.70503 5.02193 9.61813C4.97484 9.53123 4.9456 9.43579 4.93593 9.33743C4.92626 9.23906 4.93636 9.13976 4.96563 9.04535L5.74705 6.41103C5.83321 6.12143 6.01064 5.86741 6.25289 5.68684C6.49514 5.50626 6.78925 5.40879 7.0914 5.40894H10.2796C10.5818 5.40889 10.8759 5.50649 11.1181 5.68718C11.3603 5.86787 11.5376 6.12199 11.6236 6.41165L12.4051 9.04598C12.4343 9.14038 12.4444 9.23969 12.4348 9.33805C12.4251 9.43642 12.3958 9.53186 12.3488 9.61876C12.3017 9.70566 12.2377 9.78227 12.1605 9.84408C12.0834 9.90589 11.9947 9.95165 11.8996 9.97868V9.97868C11.8053 10.0076 11.7061 10.0174 11.6079 10.0075C11.5097 9.99762 11.4145 9.96823 11.3278 9.92108C11.2411 9.87392 11.1647 9.80994 11.1031 9.73288C11.0414 9.65583 10.9958 9.56724 10.9688 9.47232" stroke="#1A162E" stroke-width="1.00189" stroke-miterlimit="10" stroke-linecap="round"/>
<path d="M8.68601 3.90949C9.37702 3.90949 9.9372 3.34931 9.9372 2.6583C9.9372 1.96728 9.37702 1.4071 8.68601 1.4071C7.99499 1.4071 7.43481 1.96728 7.43481 2.6583C7.43481 3.34931 7.99499 3.90949 8.68601 3.90949Z" stroke="#1A162E" stroke-width="1.00189" stroke-miterlimit="10" stroke-linecap="round"/>
<path d="M7.18584 6.90894L5.6853 11.9107H11.6875L10.1869 6.90894" stroke="#1A162E" stroke-width="1.00189" stroke-linecap="round" stroke-linejoin="round"/>
</g>
<defs>
<clipPath id="clip0_5_841">
<rect width="16.0035" height="16.0035" fill="white" transform="translate(0.68335 0.907349)"/>
</clipPath>
</defs>
</svg>
